<?xml version="1.0" encoding="utf-8"?>
<!-- Generator: Adobe Illustrator 26.2.1, SVG Export Plug-In . SVG Version: 6.00 Build 0)  -->
<svg version="1.1"
	 id="Calque_1__x2B__Exposition_1__x2B__Niveaux_1_xA0_Image_00000134239229405609700170000018036084588528486298_"
	 xmlns="http://www.w3.org/2000/svg" xmlns:xlink="http://www.w3.org/1999/xlink" x="0px" y="0px" viewBox="0 0 716 536"
	 style="enable-background:new 0 0 716 536;" xml:space="preserve">
<style type="text/css">
	.st0{fill:#FFFFFF;}
	.st1{fill:#D7D7D7;}
</style>
<g>
	<g id="XMLID_00000176009340920476827550000017057000743856943522_">
		<g>
			<path d="M722.1,328.6c1.2,0.5-4,0.6-3.4,0.9c0.8,0.4,1,2.1,1.6,3.6c-1,0.1-1.4,0.3-1.8,0.2c-0.6-0.2-1.5-0.5-2.5-0.9
				c-3-1.2-7.2-3-9.4-3.5c-0.1,0-0.3,0-0.4-0.1c-3.9-0.5-7.9-0.3-11.9-0.6c-0.2,0-0.4,0-0.7-0.1c-3.8-0.4-14-1.9-22.3-2.9
				c-3.6-1.3-7.3-1.3-10.9-0.9c-0.1,0-0.1,0-0.2,0c-3.5,0.4-7,1.7-10.5,2.8l-0.7-2.1c2.3-0.9,4.2-1.7,5.1-2.2
				c0.2-0.1,0.3-0.2,0.4-0.2c3.1-1.8,18.6-1.3,23.9,0.2c0.3,0.1,0.5,0.1,0.7,0.2c0.1,0.1,0.2,0.1,0.3,0.1c1.2,0.4,2.3,0.6,3.4,0.7
				c7.6,1.2,23.4,2.6,30.8,3.5c0.3,0.1,0.6,0.2,1,0.4c0.4,0.2,0.8,0.3,1.2,0.5c0-0.2,0-0.4,0-0.6c0.9,0.1,1.5,0.3,1.8,0.4
				C718.2,328.2,721.8,328.4,722.1,328.6z"/>
			<path d="M721.4,419.1c0.9,3.5,0.3,4.1-2.5,4.9c-0.7,0.2-1.8,0.6-2.9,1c-0.5,0.2-1,0.4-1.5,0.6c-0.5,0.3-1.1,0.5-1.9,0.7
				c-0.3,0.1-0.7,0.2-1,0.3c-3.7,1.3-7.5,2.8-9.5,3.5c-5.5,1.8-11,4.7-16.8,3c-3.5-1-7-1.1-10.5-1.4c-1-0.1-1.9-0.9-2.8-1.5
				c-1.3-0.9-2.4-1.9-3.8-2.7c-1-0.6-2.3-1-3.5-1.2c-0.4-0.1-0.8-0.1-1.2-0.2l0.4-2.8c0.9,0.1,2.5-0.4,3.7-0.6c0,0,0.1,0,0.1,0
				c1.2-0.2,2.4-0.6,3.6-0.9c1-0.3,2-0.8,3-0.9c2.1-0.3,4.2-0.5,6.3-0.8c0.1,0.3,0.2,0.6,0.3,0.9c-2.9,1.4-5.7,2.8-8.8,4.3
				c2.6,1.7,4.9,4,8.3,3.4c2.2-0.4,4.2-1.2,6.4-2c2.2-0.7,4.5-1.5,6.7-2.3c0.2,0.4,0.4,0.8,0.6,1.1c-0.7,0.6-1.5,1.1-2.2,1.7
				c-0.8,0.7-1.5,1.4-2.3,2c0.1,0.2,0.2,0.4,0.4,0.5c6.7-2.3,17.5-6,25.8-8.8C718,420.2,719.8,419.6,721.4,419.1z"/>
			<path d="M718.2,238.8c0,0.8,0,2,0,3.1c-0.7,0.1-1.4,0.2-2.2,0.3c-0.3,0-0.7,0.1-1.1,0.1c-3.4,0.4-7.4,0.8-10.4,1.3
				c-0.3,0.1-0.7,0.1-1,0.2c-0.1,0-0.1,0-0.2,0c-2.3,0.5-4.6,1.6-6.9,2.2c0,0,0,0-0.1,0c-1.3,0.3-2.7,0.3-4,0.7
				c-3,0.8-5.9,1.6-8.8,2.6c-1.2,0.4-2.4,1.1-3.6,1.6c-2.9,1.3-5.9,2.4-8.8,3.8c-0.1,0.1-0.2,0.1-0.3,0.1c-1.1,0.6-14.6,6.9-20.8,10
				c-0.2,0.1-0.4,0.2-0.6,0.3c-0.3,0.1-0.7,0.3-1,0.5c-0.2,0.1-0.3,0.1-0.4,0.2c-0.5,0.3-0.9,0.5-1.1,0.6c0,0,0,0-0.1,0l-1.4-2.4
				c7.9-4.1,17.4-9.2,22.9-12c0,0,0,0,0,0c1.4-0.7,2.6-1.3,3.3-1.7c0.1-0.1,0.2-0.1,0.3-0.2c0.1,0,0.2-0.1,0.2-0.1
				c0,0,0.1-0.1,0.1-0.1c0.1,0,0.1-0.1,0.2-0.1s0.1-0.1,0.2-0.1c1.7-0.6,8.8-2.9,15.3-5c1.2-0.3,2.4-0.6,3.5-0.9
				c2.2-0.6,4.4-1.5,6.5-2.2c0.7-0.2,1.1-0.3,1.2-0.4c0,0,0,0,0,0c0.1,0,0.2,0,0.3-0.1c3.6-0.6,13.3-2,15.5-2.2c0.1,0,0.1,0,0.2,0
				c0.2,0,0.4,0,0.6,0C716.9,238.9,717.6,238.8,718.2,238.8z"/>
			<path class="st0" d="M716,332.3c0,29.5,0,59,0,88.6c-8.3,2.8-19.1,6.6-25.8,8.8c-0.1-0.2-0.2-0.4-0.4-0.5c0.8-0.7,1.5-1.4,2.3-2
				c0.7-0.6,1.5-1.2,2.2-1.7c-0.2-0.4-0.4-0.7-0.6-1.1c-2.2,0.8-4.5,1.6-6.7,2.3c-2.1,0.7-4.2,1.6-6.4,2c-3.3,0.6-5.6-1.7-8.3-3.4
				c3.1-1.5,5.9-2.9,8.8-4.3c-0.1-0.3-0.2-0.6-0.3-0.9c-2.1,0.2-4.2,0.4-6.3,0.8c-1,0.2-2,0.6-3,0.9c-1.2,0.3-2.3,0.7-3.6,0.9
				c0,0-0.1,0-0.1,0c-0.8,0.1-2.8-0.1-5-0.3c-2.1-1.6-4.7-0.6-7.1-1.5c-0.2-0.1-0.4-0.1-0.5-0.2c-2.6-1.3-5.2-3.3-8.3-4.2
				c1.9-0.9,3.9-1.2,5.8-1.7c2-0.5,3.9-1.3,5.8-2c0.1,0,0-0.5,0-1c-0.9,0-1.8,0.1-2.7,0c-9.5-0.6-19.1,1.2-28.5-1
				c-0.1,0-0.2,0-0.2,0c-2.5-0.7-12.8-4.3-18.3-6.4c-0.7-0.5-1.8-0.7-2.8-1.1c-0.2-0.1-0.3-0.1-0.5-0.2c-0.1,0-0.2-0.1-0.3-0.1
				c-0.7-0.4-1.3-1.1-1.5-1.8c0-0.1-0.1-0.3-0.1-0.5c-0.7-3.2-2.3-13.2-3.1-16c2.5,0.2,4.5,0.3,6.5,0.6c2.4,0.3,4.9,1.1,7.3,1
				c3.7,0,7.4-0.4,11-1c3.1-0.5,6.1-1.4,9.1-2.2c0-0.2,0-0.5-0.1-0.7c-2.2,0-4.5,0-6.7,0c-0.1-0.3-0.3-0.5-0.4-0.8
				c1.7-1.6,3.4-3.2,5.2-4.7c1.8-1.5,3.8-3,5.4-4.2c0.9,0.5,1.6,0.9,2.8,1.5c-1.7-8.1,0.3-14,6.7-18.3c-3.4-1.1-5.3-3-6.3-6.3
				c-1.1,0.6-4.7,0.4-5.6,0.4c-4.5-0.1-8.9,0-14.2,0c1.4-3.2,2.5-5.8,3.6-8.4c0.3-0.6,0.7-1.2,1.2-1.8c0.4-0.5,0.7-1,1.2-1.4
				c2.2-1.9,4.6-3.4,7.4-4.3c3.1-1,6-2.7,9.1-4.1c1.7-0.8,3.3-1.7,5-2.2c0.4-0.1,0.7-0.2,1.1-0.4c3.4-1.1,6.9-2.3,10.5-2.8
				c0.1,0,0.1,0,0.2,0c1.6-0.1,5.9,0.3,10.9,0.9c0.3,0.1,0.6,0.2,1,0.4c2.2,0.9,4.8,0.8,7.3,1.1c4.7,0.5,9.3,1,14,1.4
				c0.2,0,0.5,0,0.7,0.1c4,0.3,12.2,0.6,12.3,0.7C708.8,329.3,713,331.2,716,332.3z"/>
			<path d="M716,327.7c0,0.2,0,0.4,0,0.6c-0.4-0.2-0.8-0.3-1.2-0.5c-0.1-0.1-0.2-0.2-0.3-0.3C715.1,327.5,715.6,327.6,716,327.7z"/>
			<path class="st0" d="M716,242.2c0,28.5,0,57,0,85.5c-0.4-0.1-0.9-0.1-1.5-0.2c0,0,0,0-0.1,0c-1.7-0.9-3.7-1.5-5.7-1.6
				c-0.1,0-0.1,0-0.2,0c-5.5-0.1-10.9-0.2-16.3-1.5c-3-0.7-6.1-0.2-9.2-0.5c-1.5-0.2-2.7-0.5-3.4-0.7c-0.1,0-0.2-0.1-0.3-0.1
				c-0.2-0.1-0.5-0.1-0.7-0.2c-4.3-1.4-9.2-1.3-13.9-1.5c-3.3-0.1-6.7-0.7-10,1.3c-0.1,0.1-0.2,0.1-0.4,0.2c-2,1-4.5,0.9-6.7,1.5
				c-1.3,0.4-3,0.6-3.8,1.5c-1.8,2.1-4.6,2-6.6,3.4c-0.6,0.4-1.2,0.8-1.9,1.1c-1,0.4-1.8,0.6-2.1,0.7c0,0-0.1,0-0.1,0
				c-2.2,0.2-3.9,1.4-5.3,2.8c-1.9,1.9-3.6,3.9-5.2,6c-0.1,0.1-0.1,0.2-0.2,0.2c0,0.1-0.1,0.1-0.1,0.2c-1.2,1.3-5,2.1-6.5,2.4
				c-0.1,0-0.1,0-0.2,0c-0.1,0-0.1,0-0.2,0c0,0-0.1,0-0.1,0c-3,0.7-6,1.6-9.1,2.4c-0.1,0-0.2,0-0.3,0.1c-0.1,0-0.1,0-0.2,0
				c-1.9,0.4-7.6,1.3-13.1,2.1c-0.4-0.1-0.7-0.1-1.1-0.1c-1.8,0.2-3.6,0.6-5.4,0.9c-1.7,0.3-3.4,0.6-5,0.8c-0.5,0.1-0.8,0.1-1,0.1
				c-1.2,0.1-2.4,0.2-3.6,0.1c-2.2-0.3-4.3-1-6.5-1c-2.2,0-3.6-1-4.7-2.7c-1.9-2.8-3.5-5.7-5.5-8.3c-2.7-3.5-5.8-6.6-8.7-9.9
				c-0.2-0.2-0.7,0-1.5,0c1.9,3,3.5,5.6,5.2,8.3c0,0,0.1,0.1,0.1,0.1c0.2,0.2,0.6,0.6,1.1,1.2c0.7,2.3,3.2,3.6,4.1,5.9
				c0.1,0.3,0.2,0.7,0.3,1c0,0.1,0,0.2,0,0.3c0.1,0.9,0.9,1.8,1.2,2.3c-1.8,0.8-2.9,1.7-4.1,1.7c-4.8,0.2-9.6,0.1-14.7,0.1
				c1.8-2.9,3.3-5.5,4.9-8.1c-0.3-0.2-0.5-0.4-0.8-0.5c-0.6,0.6-1.2,1.2-1.8,1.6c-2.1,1.5-4.5,2.8-5.5,5.5c-0.6,1.6-1.9,1.6-3.3,1.5
				c-3.3-0.1-6.7-0.1-10,0c-0.8,0-1.6,0.6-1.9,0.7c-3.1-0.3-5.7-0.7-8.4-0.8c-7.2-0.1-14.3,0-21.5,0c-1.6,0-3.3,0-5.4,0
				c2.1-3,3.9-5.6,5.7-8.2c-0.1-0.2-0.2-0.4-0.2-0.5c-2,1.1-4.1,2.1-6,3.4c-0.6,0.4-0.6,1.5-0.9,2.2c-2,0.7-4,1.5-6,2.1
				c-2.1,0.6-4.3,1-6.5,1.5c0-0.2-0.1-0.5-0.1-0.7c1.5-1.6,2.9-3.3,4.4-4.9c-0.1-0.2-0.3-0.5-0.4-0.7c-1.7,0.8-3.4,1.6-5,2.4
				c-1.8,0.9-3.5,1.7-5.7,2.8c-0.2-1.9-0.3-3.3-0.6-5.2c-1.5,2.6-2.4,4.9-4,6.6c-1.2,1.2-3.2,1.6-4.8,2.5c-4.6,2.7-9.5,3.9-14.7,3.8
				c-0.3,0-0.8-0.1-1,0c-0.1,0.1-0.2,0.1-0.3,0.2c-3.4,2-12.4-2.3-13.7-3.5c-0.1-0.1-0.1-0.1-0.2-0.2c0,0,0,0,0-0.1
				c-0.3-0.6-0.2-1.7-0.7-2.2c-0.1-0.1-0.1-0.1-0.2-0.2c-0.4-1.5-0.6-3.1,0-3.5c1.4-1,3.1-1,4.9,0.2c1.5,1,3,2.4,5.2,2.3
				c2.5-0.1,4.4-1.5,6.4-2.5c1.4-0.7,3.1-1.7,3.7-3c1-2.5-0.4-5-3-6.7c1.9-1.3,3.7-2.7,5.6-3.8c1.6-0.9,3.2-2.1,5-2.4
				c0.1,0,0.3-0.1,0.4-0.1c0.3-0.1,0.5-0.1,0.8-0.1c0.2,0,0.4-0.1,0.6-0.1c3.6-0.6,7.3-0.9,10.9-1.3c0.3,0,0.5-0.3,0.8-0.4
				c2.2-1.1,15.4-4.8,16.8-5.2c0,0,0.1,0,0.1,0c1.5-0.4,2.9-1.1,4.5-1.3c4.7-0.6,9.5-1.1,14.2-1.6c0.2,0,0.3,0,0.5-0.1
				c0.1,0,0.2,0,0.4-0.1c4.1-0.8,15.5-2.6,17.6-2.8c2.5-0.3,5-0.6,7.6-1c0.1,0,0.3,0,0.5-0.1c3.2-0.3,6.4,0.9,9.6-1.1
				c2.1-0.3,4.2-0.6,5.7-1c0.6-0.1,1.1-0.2,1.7-0.5c0.1-0.1,0.3-0.1,0.4-0.2c0.3-0.2,0.7-0.4,1.2-0.6l0,0c2.9-1.2,6.2-1.8,9.3-2.7
				c1.2-0.4,2.4-0.7,3.5-1.2c1.4-0.8,2.6-2,4.1-2.6c2.8-1.2,5.7-2,8.5-3.3c0.2-0.1,0.3-0.2,0.5-0.3c5.6-2.7,19.1-9.1,21.9-10.4
				c0.1,0,0.2-0.1,0.2-0.1c0.1-0.1,0.2-0.1,0.4-0.2c2.1-1,7.6-3.9,9.4-4.8c0.1,0,0.1-0.1,0.2-0.1c3.2-1.6,6.3-3.3,9.5-4.8
				c0.1,0,0.2-0.1,0.4-0.2c3.4-1.5,6.9-2.5,10-4.8c2.3-1.1,4.5-2.2,6.1-3c0.2-0.1,0.4-0.2,0.6-0.3c0.2-0.1,0.5-0.2,0.7-0.4
				c0.2-0.1,0.3-0.1,0.4-0.2c0.1-0.1,0.2-0.1,0.2-0.1c3.8-2.1,7.5-4.4,11.3-6.5c0,0,0,0,0.1,0c0.2-0.1,0.5-0.3,1.1-0.6
				c0.1-0.1,0.3-0.1,0.4-0.2c0.3-0.1,0.6-0.3,1-0.5c0.2-0.1,0.4-0.2,0.6-0.3c0.6-0.3,1.2-0.6,1.9-0.8c2.6-1.1,5.3-2.2,8-3.3
				c2.3-1,4.7-1.9,7-3.1c1.4-0.7,2.5-2.1,4-2.7c0.1,0,0.2-0.1,0.3-0.1c3.9-1.7,23.4-8.1,25.2-8.6c0,0,0.1,0,0.1,0
				c2.3-0.7,4.5-1.7,6.9-2.2c0,0,0.1,0,0.2,0c1.2-0.2,7.7-1,11.5-1.5C715.3,242.2,715.7,242.2,716,242.2z"/>
			<path d="M714.8,327.7c-0.3-0.1-0.6-0.2-1-0.4c0.2,0,0.4,0.1,0.7,0.1C714.6,327.5,714.7,327.6,714.8,327.7z"/>
			<path d="M704.4,243.6c3-0.5,7-0.9,10.4-1.3c-3.8,0.5-10.3,1.4-11.5,1.5C703.7,243.8,704.1,243.7,704.4,243.6z"/>
			<path d="M706.2,328.8c0.2,0,0.3,0,0.4,0.1c-0.1,0-8.3-0.4-12.3-0.7C698.3,328.5,702.3,328.3,706.2,328.8z"/>
			<path d="M688.1,244.7c4.2-1.3,8.1-2.6,10-3.2c-2.2,0.8-4.3,1.6-6.5,2.2C690.5,244.1,689.3,244.4,688.1,244.7z"/>
			<path d="M692.3,246.8c1.3-0.3,2.7-0.3,4-0.7c-1.8,0.6-21.3,6.9-25.2,8.6c2.9-1.4,5.8-2.5,8.8-3.8c1.2-0.5,2.3-1.2,3.6-1.6
				C686.4,248.4,689.3,247.6,692.3,246.8z"/>
			<path d="M683.1,323.8c-1.1-0.1-2.3-0.3-3.4-0.7C680.4,323.4,681.6,323.6,683.1,323.8z"/>
			<path d="M662.8,422.3c2.2,0.3,4.2,0.4,5,0.3c-1.2,0.2-2.8,0.7-3.7,0.6c-0.3,0-0.5-0.1-0.6-0.3
				C663.3,422.7,663.1,422.5,662.8,422.3z"/>
			<path d="M660.5,324.4c3.6-0.4,7.3-0.4,10.9,0.9C666.4,324.6,662.1,324.2,660.5,324.4z"/>
			<path d="M664.2,423.2l-0.4,2.8c-3.3-0.5-6.6-0.8-9.8-1.5c-1.5-0.3-2.7-1.9-4.1-2.6c-1.1-0.6-2.4-1-3.7-1.4
				c-1.7-0.6-3.4-1.3-5.1-1.7c-3.9-1-8-1.5-11.7-2.8c0,0-0.1,0-0.1,0c-2.8-1.1-26.2-9.8-28.2-11.4c0,0-0.1,0-0.1-0.1
				c-0.6-0.6-2.2-8-3.4-14c0-0.2,0-0.3,0-0.5l3-0.2c0.1,1,0.4,2,1.5,2.9c0.2,0.1,0,0.6,0.1,1c0.5,2.3,0.9,4.6,1.5,6.9
				c0,0.2,0.1,0.4,0.1,0.5c0.2,0.7,0.9,1.4,1.5,1.8c0,0,0.1,0.1,0.3,0.1c0.2,0.1,0.3,0.2,0.5,0.2c0.6,0.3,1.6,0.6,2.8,1.1
				c0.2,0.2,0.4,0.3,0.6,0.5c1.5,2.2,4.3,0.4,5.7,2.7c0.6,1,2.6,1.1,4.1,1.5c2.6,0.6,5.3,1.1,7.9,1.7c0.1,0,0.2,0,0.2,0
				c9.5,2.2,19,0.4,28.5,1c0.9,0.1,2.7,0.9,2.7,1c-1.9,0.7-3.9,1.4-5.8,2c-1.9,0.5-3.8,0.8-5.8,1.7c3.1,0.9,5.7,2.8,8.3,4.2
				c0.2,0.1,0.3,0.1,0.5,0.2c1.6,0.7,4.5,1.2,7.1,1.5c0.2,0.2,0.5,0.4,0.7,0.7C663.7,423.1,663.9,423.2,664.2,423.2z"/>
			<path d="M649.2,325l0.7,2.1c-0.4,0.1-0.7,0.2-1.1,0.4c-1.7,0.6-3.4,1.5-5,2.2c-3,1.4-5.9,3-9.1,4.1c-2.8,0.9-5.2,2.5-7.4,4.3
				c-0.5,0.4-0.8,0.9-1.2,1.4c-0.4,0.6-0.9,1.1-1.2,1.8c-1.2,2.6-2.2,5.2-3.6,8.4c5.3,0,9.8-0.1,14.2,0c0.8,0,1.7,0.6,2.9,1
				c0.5-0.3,1.5-0.8,2.7-1.4c1,3.4,2.8,5.2,6.3,6.3c-6.4,4.3-8.4,10.2-6.7,18.3c-1.2-0.6-1.9-1-2.8-1.5c-1.6,1.2-3.5,2.7-5.4,4.2
				c-1.8,1.5-3.5,3.2-5.2,4.7c0.1,0.3,0.3,0.5,0.4,0.8c2.2,0,4.5,0,6.7,0c0,0.2,0,0.5,0.1,0.7c-3,0.8-6,1.7-9.1,2.2
				c-3.6,0.6-7.4,1-11,1c-2.4,0-4.9-0.7-7.3-1c-2-0.2-4.1-0.4-6.5-0.6c0.5,1.8-0.1,3.6,0,5.2l-3,0.2c-0.1-1.8-0.8-3.8-1.3-6.1
				c0,0,0,0,0,0c0-0.2-0.1-0.3-0.1-0.5c-3.6-0.3-8-2-11.4-0.8c-4.9,1.7-9.5,0.7-14.3,1.1c-1.2,0.1-2.6-0.6-3.8-1.1
				c-1.6-0.8-3-0.3-3.8,1c-1.7,2.7-3.2,5.4-5.6,7.7c-3.5,3.3-5.7,7.7-10.1,10.3c-2.8,1.7-5,4.5-7.5,6.7c-0.8,0.7-1.7,1.3-2.7,1.8
				c-3.1,1.5-5.7,4.2-9.8,3.3c-1-0.2-2.6,0.7-3.5,1.5c-3.5,3-7.6,3.1-11.8,2.9c-2.7-0.1-5.2-0.9-7.4-2.7c-0.5-0.4-1.7-0.4-2.4-0.1
				c-1.2,0.5-2.1,1.9-3.2,2.1c-2.1,0.3-4.5,0.6-6.4-0.1c-2.8-1-5.2-2.8-7.8-4.2c-0.2-0.1-0.7,0-1,0.2c-1.6,1.1-3.2,2.3-4.9,3.2
				c-1.1,0.6-2.3,1-3.5,1.2c-3.5,0.7-6.7,2.1-10.6,0.7c-3.9-1.4-5.6-4.3-7.9-6.9c-0.8-0.9-1.3-1.9-1.8-3.7c-2.6,0.6-5.5,0.7-7.7,2
				c-3.5,2-6.1-0.4-9-1.1c-0.3,0-0.5-0.5-0.7-0.5c-2.7,0-4.6-1.4-6.8-2.9c-5.3-3.5-6.6-5.3-6.6-11.6c0-4.1,0-8.1,0-12.9
				c-1.3,0.5-2.3,0.9-3.3,1.3c-0.4,0.2-0.9,0.5-1.3,0.6c-5,0.5-10,1.2-15,1.5c-1.6,0.1-3.3-0.8-5-1.2c-0.5-0.1-1-0.2-1.5-0.2
				c-2.4,0-4.9-0.3-7.3,0.1c-3.3,0.5-6.5,1.8-9.8,2.2c-2.1,0.3-4.4-0.5-6.6-0.6c-1.6-0.1-3.4,0.2-5-0.2c-2.4-0.6-4.6-1.6-6.8-2.3
				c-0.9,0.3-2,0.5-3,0.9c-4.7,2.1-9.6,1.5-14.5,1.4c-3.5-0.1-6.8-1.5-10.1-2.7c-2-0.7-4.4-0.2-6.6,0c-1.4,0.1-2.8,1-4.2,1.2
				c-2.1,0.2-4.4,0.3-6.5,0c-2.9-0.5-5.7-1.6-8.6-2.2c-2.7-0.5-5.5-2.2-8.1,0.5c-0.3,0.3-1.1,0.3-1.7,0.3c-4.9,0-9.8,0-14.7,0
				c-0.6,0-1.2-0.5-1.9-0.7c-1.4-0.3-2.6-1.9-4.2,0.3c-0.6,0.9-3.1,0.4-5.1,0.6c0,3.3-0.3,6.8,0.1,10.2c0.4,4.5-2.1,7.5-4.9,10.2
				c-1.2,1.2-3.4,1.3-5.2,1.9c-0.1,0-0.1,0-0.2,0c-0.3,0-0.6-0.1-0.8,0c-1.9,0.1-6,0.1-8.1-0.1c-0.1,0-0.2-0.1-0.5-0.2
				c-0.3-0.3-0.6-0.7-0.9-0.9c-3-2-6-4-9-5.9c-0.2-0.2-0.4-0.3-0.7-0.4c-0.3-0.2-0.5-0.3-0.8-0.5c-0.5-0.3-1.1-0.4-1.9-0.6
				c0,1.1-0.1,2.1,0,3c0.4,2.9-0.4,5.1-2.6,7.2c-3,3-6.3,4.4-10.5,4.4c-1.9,0-3.9,0.7-5.8,0.9c-3.2,0.4-5.5-1.5-8-3
				c-1-0.6-1.9-2-2.9-2.1c-0.8-0.1-1.8,1.1-2.8,1.6c-2.3,1.2-4.6,2.5-7,3.5c-1.2,0.5-2.7,0.1-4.1,0.2c-3.8,0.4-6.6-1.9-9.7-3.5
				c-0.4-0.2-0.8-0.4-1.2-0.6c0,0.1,0,0.1-0.1,0.2c-0.5,1-2.3,1.5-4.5,1.8c-3.2,0.4-7.2,0.2-8.8,0.1c-0.8,0-1.5-0.4-2.2-0.6
				c-1.2-0.4-2.4-0.9-3.6-1.3c-0.3-0.1-0.6-0.2-0.9-0.2l0.8-2.8c1.9,0.5,3.8,1,5.8,1.1c4.3,0.2,9,1.5,13.1-1.9
				c-0.8-4.5,1.2-9.3-1.5-13.8c-0.5-1,0-2.5-0.3-3.7c-0.2-0.9-0.4-1.8-0.6-2.6l2.1-0.3c0.1,0.2,0.1,0.5,0.2,0.7
				c1.8,3.3,2.7,6.8,2.8,10.6c0.1,3.7-1.1,7.7,1.6,10.7c1.4,0.8,2.7,2,3.8,1.9c3-0.3,6,0.8,9.3-1.1c2.4-1.4,3.9-2.8,5.1-4.9
				c0.7-1.2,1.3-2.5,1.8-3.9c0.3-0.9,0.9-2,0.6-2.9c-0.3-0.9-0.6-1.7-0.9-2.5l2.7-0.8c0.7,2.1,1.6,4.2,2.2,6.3
				c0.3,1.2,0.3,2.6,0.4,3.9c-0.8-0.2-1.5-0.5-3.1-0.9c0.6,1.1,0.9,2.1,1.6,2.7c2.9,2.3,5.7,4.8,9.8,4.2c0.8-0.1,1.7,0,2.5,0
				c0.7,0,1.8-0.1,1.9-0.2c0.4-1.8,1.8-0.9,2.7-1.3c1.5-0.5,3.2-1,4.4-2c1-0.8,2.2-2,1.6-3.7c-0.6-2.1,0.9-4.4-1.4-6.5
				c-1.2-1.1-0.9-3.8-1.8-5.5c-1.6-3.2-4.1-6.1-4.1-10c0-0.2-0.7-0.6-1.2-0.7c-2.2-0.5-4.5-1-6.8-1.5l0.6-2.7
				c1.8,0.5,3.9,0.1,5.9,0.1c0.1-0.2,0.2-0.5,0.4-0.8c-1.2-0.7-2.3-1.4-3.5-2.1c-1.7-1-3.7-1.7-5.1-3.1c-2.2-2-2.2-3.9-0.5-6.9
				c0,0,0,0,0,0c0,0,0,0,0,0c0.2-0.3,0.3-0.6,0.3-1c0.5-1.4,1.3-3.8,2.1-4.5c1.3-1.3,2.7-1.2,4.6-0.2c3,1.5,4.1,2.4,4.3,5.6
				c0.1,1.8,0.5,3.7,0.7,5.5c0.2,0.1,0.5,0.1,0.7,0.2c0.5-1.7,1.2-3.4,1.5-5.1c0.4-2.5,0.3-5.1,0.6-7.6c0.2-1.5,0.8-3,0.9-4.6
				c0.2-2,0.1-4,0-6c0-0.5,0-1.2-0.3-1.6c-2.4-3.2-4.9-6.5-7.4-9.7c-1.2-1.5-2.6-2.8-3.7-4.3c-2.3-3-4.2-6.3-7.7-8l2.2-0.9
				c3.9,3,8.6,6.9,9.9,8.5c0.1,0.1,0.1,0.2,0.2,0.2c1.8,2.6,4.3,4.6,6.3,7.1c1.2,1.5,2.3,3.1,3.1,4.8c1,2.3,1.7,4.8,2.6,7.8
				c1-0.3,2.4-0.8,3.8-0.9c1.8-0.1,3.6,0,5.4,0.1c0.7,0.1,1.5,0.6,2.2,0.6c6,0,12,0.1,18,0c2,0,4-0.6,6.1-1c4-0.7,8-0.5,11.9,0.9
				c1.6,0.6,3.6,0.3,5.5,0.2c5.3-0.3,10.5-1,15.8-0.9c3.9,0,7.9,0.5,11.6,2.2c2.1,1,4.6,1.3,6.9,1.6c1.1,0.2,2.5,0.6,3.1-1.1
				c0.1-0.3,1.2-0.3,1.9-0.3c3,0,6,0.1,9,0c1.1,0,2.1-0.5,3.1-0.8c0.5-0.1,1.1-0.2,1.5-0.1c4,1.9,8.7,1.6,12.3,0.5
				c4.6-1.4,9.1-1.1,13.6-1c3.3,0.1,6.5,2,9.9,1.3c1.2-0.2,2.3-0.8,3.4-1.1c0.5-0.2,1-0.3,1.4-0.3c4.1,0,8.4-0.8,12.2,0.3
				c3.5,1.1,6.9,1.1,10.4,1.1c0.9,0,1.8-0.7,2.7-1c0.7-0.2,1.4-0.4,2.1-0.5c3.4,0,6.8,0,9.4,0c1.3-1.3,2-2.2,2.8-2.9
				c1.8-1.4,3.7-2.6,5.6-3.9c0,0,0,0,0,0c0,0,0.1,0,0.2-0.1c0.1,0,0.1-0.1,0.2-0.1c0.1,0,0.3-0.1,0.5-0.1c2.9-0.1,5.2-1.7,7.4-3.5
				c0,0,0.1-0.1,0.1-0.1c0.1-0.1,0.2-0.1,0.3-0.2c0,0,0,0,0.1,0c1.1-0.7,2.6-1.1,3.8-1.7c0.8-0.4,1.7-0.9,2.3-1.6
				c0.2-0.2,0.3-0.4,0.5-0.6c3.3-1.8,6.8-3.5,8.5-3.8c3.1-0.5,6.4-0.8,9.5-1.5c0.1,0,0.1,0,0.2-0.1c2.5-0.5,5.3-0.9,7.4-2.1
				c2.4-0.7,5.1-1.5,7.7-2.2l0.6,2c-1.6,0.4-3.1,1.1-4.7,1.5c-2.4,0.7-4.5,2.2-6.7,3.4c-0.2,0.1-7.2,1-11.7,1.7
				c-0.2,0-0.4,0.1-0.6,0.1c-0.3,0-0.5,0.1-0.8,0.1c-0.1,0-0.3,0-0.4,0.1c-1.8,0.3-3.4,1.4-5,2.4c-1.9,1.2-3.7,2.5-5.6,3.8
				c2.6,1.8,4,4.2,3,6.7c-0.5,1.3-2.3,2.3-3.7,3c-2,1-3.8,2.4-6.4,2.5c-2.3,0.1-3.8-1.3-5.2-2.3c-1.9-1.2-3.5-1.2-4.9-0.2
				c-1.1,0.8-1.1,2.2,0,3.5c0.3,1,0.6,1.9,0.9,2.4c0,0,0,0,0,0.1c0.1,0.1,0.1,0.2,0.2,0.2c1.4,1.2,2.9,2.9,4.5,3.1
				c3,0.3,6.1,2.5,9.2,0.4c0.1-0.1,0.2-0.1,0.3-0.2c0.2-0.2,0.7-0.1,1,0c5.2,0,10.2-1.2,14.7-3.8c1.6-0.9,3.7-1.3,4.8-2.5
				c1.6-1.7,2.5-4,4-6.6c0.2,1.9,0.4,3.3,0.6,5.2c2.2-1.1,3.9-1.9,5.7-2.8c1.7-0.8,3.4-1.6,5-2.4c0.1,0.2,0.3,0.5,0.4,0.7
				c-1.5,1.6-2.9,3.3-4.4,4.9c0,0.2,0.1,0.4,0.1,0.7c2.2-0.5,4.4-0.9,6.5-1.5c2-0.6,3.9-1.4,6-2.1c0.3-0.7,4.9-4.5,6.9-5.6
				c0.1,0.2,0.2,0.4,0.2,0.5c-1.8,2.6-3.6,5.2-5.7,8.2c2.1,0,3.8,0,5.4,0c7.2,0,14.3-0.1,21.5,0c2.7,0,5.3,0.5,8.4,0.8
				c0.2-0.1,1.1-0.7,1.9-0.7c3.3-0.1,6.7-0.1,10,0c1.4,0,2.7,0,3.3-1.5c1-2.7,3.4-4,5.5-5.5c0.7-0.5,1.2-1.1,1.8-1.6
				c0.3,0.2,0.5,0.4,0.8,0.5c-1.6,2.6-3.1,5.2-4.9,8.1c5.1,0,9.9,0.1,14.7-0.1c1.2,0,2.4-0.9,4.1-1.7c-0.3-0.5-1.1-1.4-1.2-2.3
				c0-0.1,0-0.2,0-0.3c0-0.4-0.2-0.7-0.3-1c-0.8-2.1-2.8-4.5-4.1-5.9c0-0.2-0.1-0.4-0.1-0.5c0-0.2-0.7-0.4-1-0.6
				c0,0-0.1-0.1-0.1-0.1c-1.7-2.6-3.3-5.3-5.2-8.3c0.8,0,1.3-0.2,1.5,0c3,3.3,6,6.5,8.7,9.9c2,2.6,3.7,5.5,5.5,8.3
				c1.1,1.7,2.5,2.7,4.7,2.7c2.2,0,4.3,0.7,6.5,1c1.2,0.1,2.4,0,3.6-0.1c0.2,0,0.5-0.1,1-0.1c2.1-0.3,6.7-1,11.5-1.7
				c0.4,0.1,0.8,0.2,1.2,0.4c1.5,0.6,3,1.2,4.3-0.5c0.1-0.2,0.4-0.4,0.6-0.4c2.4-0.5,4.7-1,7.1-1.5c0.1,0,0.1,0,0.2,0
				c0.1,0,0.2,0,0.3-0.1c3-0.7,6-1.6,9.1-2.4c0,0,0.1,0,0.1,0c0,0,0.1,0,0.2,0c0.1,0,0.1,0,0.2,0c0.7-0.1,1.4-0.1,2,0
				c2.2,0.4,3.4-0.9,4.5-2.4c0-0.1,0.1-0.1,0.1-0.2c0-0.1,0.1-0.1,0.2-0.2c1.9-2.4,8.4-8.6,10.6-8.8c0,0,0.1,0,0.1,0
				c0.7-0.1,1.4-0.4,2.1-0.7C638.5,329.3,644.6,326.9,649.2,325z M639.9,358.7c0.5-0.9,1.2-3.1-1.2-3.8c-2.2-0.6-4.3-2.1-6.5-2.1
				c-5.8,0-11.6,0.5-18.2,0.8c1.2,1.3,1.8,2.3,2.7,3c4,3,8.2,5.8,12.2,8.8c1.6,1.1,3,2.6,4.6,3.6c0.6,0.4,2.3,0.1,2.4-0.2
				C637,365.4,638.1,361.9,639.9,358.7z M626.1,378.7c1.7-2,3.5-3.9,5.5-6.1c-1.8-1.8-3.8-3.9-6-5.8c-1.5-1.2-3.4-1.8-5-2.9
				c-2.9-1.9-5.6-4-8.4-5.9c-1.7-1.1-4-1.6-5.2-3.1c-2-2.4-5-3-7.3-3.4c-5-0.8-10.2-0.2-15.7-0.2c0.8,1.1,1.3,2,1.9,2.4
				c2.6,1.8,5.3,3.5,7.9,5.3c0.8,0.6,1.6,1.2,2.5,1.8c2,1.3,4.1,2.5,5.9,4c1.7,1.4,3.2,3,4.7,4.5c2.3,2.4,4.5,5,7,7.2
				c1.4,1.3,2.6,3.5,5.1,2.9c0.4-0.1,0.8,0.1,1.2,0.3C622.1,380.8,624.6,380.4,626.1,378.7z M616.8,349.6c0.8-0.2,1.5-1,2.3-1.6
				c-0.8-0.4-1.7-1.4-2.4-1.2c-3.5,0.5-6.9,1.2-10.3,1.8c-0.1,0.2-0.3,0.4-0.4,0.6c1.3,0.5,2.5,1.4,3.8,1.4
				C612.1,350.6,614.5,350.2,616.8,349.6z M612.3,380.7c-0.3-0.8-0.4-1.2-0.6-1.4c-1.3-1.2-2.7-2.4-4-3.6c-2.2-2.1-4.3-4.4-6.5-6.4
				c-1.9-1.7-3.9-3.4-6-4.9c-3.5-2.6-7.1-5.2-10.8-7.5c-2.3-1.4-5.1-2.1-7.6-3.4c-2.4-1.3-4.8-2.2-7.6-2.2c-0.9,0-1.8-0.2-2.7-0.3
				c-2.8-0.2-5.6-0.7-8.6,0.8c2.7,2.3,5.1,4.4,7.6,6.5c2.3,1.9,4.4,4.1,6.9,5.7c4,2.5,6.6,6.6,11,8.7c3.3,1.7,5.9,4.8,9.3,6.4
				c1.9,1,4.5,1,6.8,1.5C603.5,381.3,607.7,380.7,612.3,380.7z M583.7,379.2c0.5,0,0.9-0.1,1.6-0.2c-4-3.2-7.7-6-11.2-9
				c-2.3-1.9-4-4.7-6.5-6.1c-2.6-1.4-4.3-3.6-6.5-5.2c-2.1-1.6-4.3-3.5-6.8-4.5c-5.1-2-10.5-3.4-16.2-3c-2.7,0.2-5.3,0-8,0
				c-0.5,0-1,0.2-1.5,0.3c2,1.8,3.9,3.4,5.8,5c2,1.6,4,3.2,6.1,4.6c2.1,1.5,4.5,2.8,6.5,4.4c3.3,2.6,6.3,5.6,9.7,8.1
				c2,1.4,4.5,2,6.7,3.2c2.4,1.4,4.6,2.5,7.5,2.3C575.2,379,579.4,379.2,583.7,379.2z M550.3,380.5c2.6,0,5.1,0,7.8,0
				c-1-2.5-3.3-4.3-6.7-5.2C551.1,377,550.8,378.6,550.3,380.5z M556.9,384.1c-0.2-0.2-0.5-0.5-0.7-0.8c-1.6,0.4-3.2,1.4-4.7,1.2
				c-3.1-0.4-5.2,0.8-6.7,3.3c-0.7,1.2-1.3,2.4-2.1,3.6c-1.6,2.4-3.2,4.9-5,7.2c-2.2,2.9-4.7,5.7-7,8.5c-0.4,0.5-0.6,1.2-0.5,1.9
				c1.1-0.2,4-1.5,5.7-2.5c0.2-0.1,0.4-0.2,0.5-0.3c0.2-0.1,0.4-0.3,0.6-0.4c3-2.5,5.8-5.1,8.6-7.7c3.8-3.5,7.7-7,10.1-11.7
				C556.2,385.7,556.5,384.9,556.9,384.1z M540.5,379.6c3.4,0.5,6.9-3.5,6.5-6.7c-1.1-0.8-2-1.7-3-1.9c-1.2-0.2-3.2-0.2-3.8,0.5
				c-1.1,1.4-1.5,3.4-1.9,5.2C538,378.4,539,379.4,540.5,379.6z M544.5,382.2c-2,0-3.3,0-4.7,0c-3.1,0-4.2-1.1-4.2-4.3c0,0,0,0,0,0
				c0-1.4,0.6-3.1,0.6-3.2c0.2,0,0.4-0.9,0.5-1c0,0,0-0.1,0.1-0.2c0,0,0.1,0,0.1,0c0,0,0.1,0,0.1-0.1c0.6-1.5,1.2-3,1.8-4.7
				c0.1-0.2,0.2-0.5,0.3-0.7c1.7-0.1,3.3-0.2,4.9-0.2c-0.2-1.2-2.4-1.6-6.6-0.9c-0.5,2.2-2.9,7.5-3.1,8c-0.3,0.7,0.1,1.8-0.2,2.4
				c-2.2,3.7-4.4,7.4-6.8,10.9c-2.2,3.4-4.6,6.7-7,10c-1.6,2.2-3.3,4.4-5.2,6.4c-2,2.1-4.4,3.9-6.5,5.9c-0.5,0.4-1.1,0.9-1.7,1.4
				c-0.3,0.3-0.2,0.8,0.1,1c1.1,0.6,1.8,1.1,2.9,1.5c1.1,0.4,2.2,0.4,3.1,0.2c0.8,0.1,1.5-0.4,2.2-0.7c0.1,0,0.2-0.1,0.3-0.1
				c0.6-0.2,1.2-0.8,1.8-0.8c3,0,5.5-1.3,7.4-3.6c2.5-2.9,4.9-5.8,7.2-8.9c2.8-3.7,5.6-7.4,8.3-11.2c1.1-1.5,2-3.1,3-4.7
				C543.7,384.2,544,383.3,544.5,382.2z M533,370.1c-0.2-0.1-0.5-0.2-0.7-0.3c-2.5,1.4-3.8,4.9-7.7,4c-1.4-0.4-4.1-3-4.5-4.4
				c0-0.2-0.1-0.3-0.1-0.5c-0.4-2.4,0.8-4.5,1.5-6.8c0.3-0.7,0.6-1.4,1-2.1c2.7,0,4.8-0.3,7.8-0.3c-1.2-2.4-3.6-3.7-5.5-2.8
				c-1.8,0.8-3.3,2-5,2.8c-3.8,1.8-5.6,5.6-7.9,8.7c-2.5,3.4-3.4,7.6-4.2,11.8c-0.4,2-1.4,4-2.2,6c-0.7,1.7-1.7,3.3-2.2,5
				c-0.6,2-1.5,3.8-2.9,5.5c-3.5,4.6-7.6,8.8-12.2,12.3c-0.2,0.2-0.4,1.1-0.2,1.2c2.1,1.4,3.3,4.1,6.6,3.3c1.9-0.4,3.8-0.4,5.7-1.4
				c4.3-2.2,8.2-4.7,11.4-8.1c1.3-1.4,2.4-3.1,3.6-4.6c1.2-1.5,2.5-2.9,3.6-4.5c1.2-1.8,2.2-3.7,3.4-5.4c1.5-2.1,4-3.9,4.6-6.2
				c0.7-2.7,4.3-3.9,3.3-7.1c-0.1-0.2,0.3-0.5,0.5-0.8C531.4,373.5,532.2,371.8,533,370.1z M532.6,364.4c-1.4-0.5-1.8-0.8-2.3-0.9
				c-1.9-0.4-3.9-1.3-5.7-1c-0.7,0.1-1,2.8-1.5,4.3c-0.1,0.5,0,1,0,1.5c0.1,1.8,2.5,3.3,3.8,2.1
				C528.9,368.8,530.5,366.7,532.6,364.4z M524,353.1c0-0.2,0-0.4,0.1-0.6c-7.4-0.6-14.8-1.1-22.2-1.7c-0.1,0.3-0.1,0.6-0.2,0.9
				c3.6,3,7.1,6,10.6,8.9C516.2,358.1,520.1,355.6,524,353.1z M510.1,365.2c0.6-2-0.8-3.4-2.3-4c-3.5-1.4-5.3-4.8-8.5-6.6
				c-3-1.8-5.9-3.2-9.3-3.4c-3-0.1-6-0.2-9,0c-3,0.3-5.9,1-8.8,1.5c0,0.2,0,0.5,0,0.7c1.3,0.7,2.8,1.1,3.8,2.1
				c2.3,2.2,4.6,4.2,7.6,5.4c0.4,0.2,0.7,0.6,1.1,0.9c2.4,2.2,4.9,4.3,8.5,3.3c1.3-0.3,2.6-1.4,3.9-1.4c3.4-0.1,7-0.8,10,2.1
				c0.2,0.4,0.5,1.1,1.1,2.3C509,367,509.8,366.2,510.1,365.2z M505.2,372.2c-2.5,0-4.2,0-6,0c-0.9,0-1.8,0-3,0
				c0,2.2-0.3,4.1,0.1,5.7c0.3,1.1,1.7,2.5,2.8,2.6c1.2,0.1,3.2-0.6,3.8-1.6C504,377,504.4,374.7,505.2,372.2z M504.4,369.6
				c0.1-0.4,0.2-0.8,0.3-1.2c-1.6-0.6-3.2-1.1-4.7-1.7c-2.6-0.9-4.6,1.1-6.6,2c-3.8,1.6-6.7,4.8-9.2,8.1c-0.8,1.1-1.1,2.7-2.1,3.6
				c-1.6,1.6-2.3,3.4-2.9,5.4c-0.2,0.7-1,1.3-1.6,1.8c-0.2,0.1-0.9-0.8-1.3-0.8c-1-0.1-2.1-0.1-2.9,0.2c-0.1,0-0.1,0.1-0.2,0.1
				c0,0,0,0,0,0c-0.1,0-0.1,0.1-0.2,0.1c-0.7,0.3-1.8,1-3.1,1.8c-4,0.4-6,3.5-7.2,6.3c-1,2.3-2.6,4.2-3.8,6.2
				c-1.2,1.9-1.2,3.4-0.4,4.9c1.1,2.2,2.6,4.2,4,6.1c1.5,2.1,8.4,3,10.6,1.7c1.5-0.9,3-1.7,4.5-2.5c2.1-1.1,4.4-2,6.3-3.4
				c2.2-1.5,4.2-3.3,6.1-5.2c2.7-2.6,5.5-5.1,7.8-8.1c1.7-2.2,2.8-5,4-7.6c0.7-1.6,1.1-3.3,1.9-5.4c-1.2,0.1-2,0-2.6,0.3
				c-3.6,1.8-8.8-1.2-8.6-5.1c0.1-2.2,0.9-4.3,1.6-6.4c0.8-2.2,3.2-2.2,5-2.5C500.6,368.2,502.6,369.1,504.4,369.6z M486.6,369.1
				c0-0.3,0.1-0.5,0-0.6c-0.7-2.7-3.5-3.2-5.3-4.7c-2.5-2.1-5.5-3.7-8.2-5.5c-1.8-1.3-3.6-2.7-5.3-4.1c-1.6-1.3-5.3-1.5-6.9-0.2
				c-1.3,1-5.7,2.8-8,3c1.1,1.2,1.8,2,2.6,2.7c2.2,1.8,4.6,3.4,6.7,5.3c2,1.7,3.7,3.8,5.6,5.6c1.9,1.9,3.8,3.9,5.9,5.5
				c1.4,1,3.1,1.8,4.8,2c0.6,0.1,1.6-1.5,2.2-2.4c0.7-1.1,1-2.4,1.9-3.3C483.8,371.1,485.3,370.1,486.6,369.1z M466.6,386.4
				c3.6-0.7,6.2-2.7,9.2-5.6c-2.2,0.6-3.7,1.2-5.2,1.4c-1.7,0.2-3.5,0.1-5.2,0.1C465.8,383.7,466.2,384.8,466.6,386.4z M470.7,378.9
				c0.3-0.4,0.5-0.7,0.8-1.1c-2.6-2.1-5.2-4.2-7.7-6.4c-2.3-2-4.4-4.2-6.7-6.2c-2-1.8-4.1-3.5-6.4-5c-1.5-0.9-3.6-2.2-4.8-1.8
				c-4.3,1.6-8.3,2.2-12.5-0.1c-0.9-0.5-1.9-1.4-2.8-1.5c-2.8-0.2-3.7-2.3-4.8-4.2c-1.2-2.2-2.5-4.1-5.5-3.4
				c-1.4,0.3-2.9,0.5-4.7,0.7c1.8,1.1,3.3,1.8,4.5,2.9c3.1,2.6,6,5.3,9,7.9c2.2,1.9,4.4,3.8,6.6,5.6c3,2.5,5.8,5.1,9,7.2
				c2.1,1.4,4.7,2.2,7.1,3.2c3.1,1.3,6.2,2.7,9.7,2.5c2.6-0.2,5.2,0,7.7,0C469.7,379.2,470.2,379,470.7,378.9z M451.4,384
				c3.9,2.5,7.8,4,12.3,3.7c-0.8-2.9-3.6-5.4-6.1-5.4c-2.6-0.1-5.2,0-7.8,0c-3.1,0-5.3,1.7-7.7,3.3c-1.5,0.9-2.9,3.1-5.9,1.7
				c1.8-2.2,3.5-4.1,5.4-6.3c-1.3,0-2.4-0.3-3,0.1c-2.4,1.5-4.8,1.5-7.4,1c-1.8-0.3-3.1-0.3-3,2.3c0.2,3.9-0.2,7.8,0.2,11.7
				c0.2,1.7,1.4,3.5,2.6,4.8c2.9,3.4,7.4,3.7,11.2,5.3c3,1.3,6.4-0.1,9.1-2c1.6-1.1,3-2.4,4.4-3.8c0.6-0.6,0.8-1.4,1.2-2.2
				c-0.3-0.1-0.5-0.3-0.8-0.4c-0.3,0.2-0.5,0.5-0.8,0.7c-1.6,1-3.2,2.6-5.1,1.7c-1.3-0.6-3-1.9-3.2-3.1c-0.5-2.4-0.7-5.2,0.1-7.4
				C447.9,387.3,450,385.6,451.4,384z M459.5,391c-2.9-1.2-5.5-3.6-8.3-1.7c-2.2,1.5-1.5,4.3-1.3,6.6
				C454.4,397,456.4,393.6,459.5,391z M445.7,342.1c-0.9-1.4-1.4-3.1-2.5-3.7c-1.1-0.5-2.9,0-4.2,0.5c-2.1,0.7-4,1.7-6.6,2.9
				c1.1,0.8,2.1,1.4,2.9,2.3c1.5,1.7,2.9,1.4,4.6,0.5C441.5,343.7,443.3,343.1,445.7,342.1z M442.5,377.5c-0.3-0.6-0.4-1.1-0.7-1.3
				c-3-2.5-6-4.9-9-7.4c-3.4-2.9-6.7-5.9-10.1-8.7c-2.2-1.8-4.9-3.1-6.7-5.2c-3.2-3.8-7.9-4.1-12-4.9c-4.9-0.9-10.1-0.2-15.2-0.2
				c-0.5,0-1,0.2-1.9,0.4c3,2.4,5.6,4.6,8.3,6.6c3.9,2.9,7.9,5.7,11.7,8.7c2.6,2.1,4.8,4.8,7.6,6.6c2.9,1.9,6.1,3.4,9.4,4.6
				c3.6,1.3,7.3,2.3,11.3,1.7C437.5,377.9,439.8,377.8,442.5,377.5z M416.3,379.2c-0.7-1.2-1.1-2.1-1.7-2.6c-2-1.8-4-3.6-6.2-5.2
				c-0.7-0.6-1.9-0.5-2.6-1.1c-3.2-2.6-6.3-5.4-9.5-8.1c-2.4-2-5.4-3.5-7.5-5.9c-3.5-4.1-8.2-5.7-12.9-6.4c-5.4-0.7-10.9-0.2-17-0.2
				c0.4,0.7,0.5,1.2,0.8,1.5c2.7,2.3,5.5,4.5,8.1,6.9c2.2,1.9,4.5,3.8,6.5,5.9c2,2,3.8,4.2,5.8,6.2c1.2,1.2,2.4,2.6,3.9,3.5
				c1.3,0.9,2.9,1.4,4.5,1.9c3.4,1.2,6.7,3.1,10.2,3.5C404.3,379.6,410,379.2,416.3,379.2z M385.3,379c-3.4-3.1-6.7-6.2-10.1-9.3
				c-3.3-3-6.6-6-9.9-9c-2.5-2.2-5-4.5-7.6-6.6c-2.9-2.4-6.3-4.1-10.1-4.2c-3.1-0.1-6.2-0.6-9.4,0.8c-2.1,0.9-4.8,0.6-7.9,0.8
				c0.6,1,0.9,1.9,1.4,2.3c2.2,1.6,4.5,3,6.7,4.6c1,0.7,1.8,1.7,2.9,2.4c2.5,1.7,5.4,2.9,7.5,4.9c3,2.8,6,5.5,9.1,8.1
				c4.3,3.6,9.4,5.8,14.5,6.7C376.8,381.2,381.7,382,385.3,379z M358.6,379.2c-0.9-1.3-1.3-2-1.9-2.5c-2.9-2.4-6-4.6-8.9-7
				c-1.7-1.4-3-3.6-4.9-4.3c-2.6-1-4.2-3.2-6.5-4.5c-2.7-1.6-4.9-3.8-7.5-5.6c-2.2-1.5-4.5-2.9-7-4c-2.8-1.2-5.6-2.6-8.5-3
				c-4.4-0.5-8.9-0.1-14-0.1c0.5,1.1,0.6,2.1,1.1,2.4c3.4,2.1,7,3.9,10.2,6.1c3.6,2.5,6.7,5.7,10.3,8.2c3.8,2.5,6,6.5,9.5,9.3
				c3.2,2.6,6.9,4,10.3,4.6C346.3,379.9,352.1,379.2,358.6,379.2z M327.6,377.7c0.1-0.2,0.2-0.4,0.3-0.6c-3.5-3.5-7-6.9-10.5-10.4
				c-1.4-1.4-2.9-2.5-4.6-3.6c-2.9-1.9-5.4-4.3-8.2-6.3c-1.8-1.3-4.1-1.8-5.8-3.2c-3.7-2.9-8.2-4-12.5-5.1c-4.1-1.1-8.6-0.2-13-0.2
				c0,0.2-0.1,0.5-0.1,0.7c0.8,0.4,1.8,0.6,2.4,1.2c3.6,3.2,7.1,6.6,10.9,9.5c2,1.5,3.6,3.3,6,4.6c3.5,1.9,6.1,5.3,9.2,7.9
				c3.8,3.1,8.4,4.5,13,5.4C319,378.3,323.4,377.7,327.6,377.7z M299.8,376.1c0.1-0.2,0.2-0.4,0.2-0.7c-2.3-1.6-4.9-3-6.9-5
				c-2.6-2.6-5.2-5.1-8.4-7.1c-2.4-1.5-4.1-4-6.3-5.9c-2.5-2.2-4.9-4.7-7.8-6.1c-3.4-1.6-7.3-2.6-11.1-3c-4.8-0.5-9.7-0.1-14.7-0.1
				c0.1,0.7,0.1,1.1,0.3,1.3c2.2,1.8,4.6,3.5,6.8,5.3c2.9,2.3,5.7,4.7,8.5,7.1c1.3,1.1,2.4,2.3,3.8,3.3c1.5,1.2,3.1,2.1,4.7,3.2
				c1.7,1.2,3.2,2.7,4.9,3.8c1.5,0.9,3.5,0.9,4.9,1.9c4.1,2.8,8.8,3.2,13.5,3.6c1.2,0.1,2.5-0.7,3.8-0.9
				C297.3,376.5,298.5,376.3,299.8,376.1z M272.8,377.7c0.5,0,1-0.1,1.3-0.2c-1.1-1.3-1.9-3.1-3.3-3.6c-2.5-0.9-4-3-6.2-4.3
				c-1.8-1.1-3-3.4-4.9-4.2c-1.8-0.7-2.9-1.7-4.1-3c-0.9-1.1-2.1-1.8-3.2-2.7c-2.9-2.2-5.9-4.3-8.9-6.4c-1.7-1.2-3.3-2.5-5.5-4.3
				c-0.6,4-1.1,7.1-1.5,10.3c-0.1,0.6,0,1.3,0,2c0,2.7-0.7,5.7,2.8,7.1c0.5,0.2,0.8,0.9,1.2,1.4c1.9,2.3,3.8,4.4,7.3,4
				c0.9-0.1,1.9,0.3,2.9,0.7c2.6,1,5.1,2.8,7.8,3.1C263,378.1,267.9,377.7,272.8,377.7z M270.3,390.6c0-0.3-0.3-0.6-0.4-0.9
				c-0.4-1.1-0.9-2.3-1-3.5c-0.2-1.5,0-2.9,0-4.7c-2,0.3-3.7,0.6-5.5,0.9c1,1.2,1.9,2.2,2.7,3.3c-0.1,0.2-0.3,0.5-0.4,0.7
				c-1-0.3-2-0.5-2.9-1c-3.8-2.3-7.6-4.8-11.4-7.1c-0.6-0.4-1.5-0.2-2.3-0.4c0.4,0.5,0.8,1,1.1,1.5c0.4,0.5,0.7,0.9,1.2,1.3
				c1.6,1.3,2.9,5.9,1.8,6.7c-2,1.5-3.9,3.4-6.8,3.3c-0.9,0-1.9,0-2.9,0c0,0.2-0.1,0.4-0.1,0.6c0.8,0.6,1.5,1.4,2.4,1.9
				c2,1.2,4.5,1.8,5.9,3.4c2.5,2.8,5.4,3.8,8.9,3.5c0.9-0.1,1.8-0.8,2.8-0.9c4.3-0.5,5-4.2,6.5-7.3
				C270,391.5,270.2,391.1,270.3,390.6z M250,386.3c1.4-3.4-1.4-3.8-2.7-5c-2.2-2.1-3.2,2.1-5.1,1c-1.5,3.5,2.6,3.3,3,5.3
				C246.9,387.1,248.7,386.6,250,386.3z M236.6,378.4c1.4-1.3,2.6-2.8,3.7-3.9c-2.2-1.8-4.1-3.5-6.3-5.3c-0.2,0.9-0.2,2.3-0.8,2.7
				c-2.6,1.8-1.1,4-0.6,5.8C233,379.5,235.1,379.8,236.6,378.4z M227.9,361.6c0.1-3.3-0.5-4.6-2.2-4.9c-0.3,0-0.7-0.1-1.1-0.1
				c-0.6,0-1.2,0.1-2,0.2c-0.3,0.8-0.6,1.7-0.9,2.5c-0.3,0.8-0.6,1.7-0.8,2.5c-0.1,0.5-0.1,1.4,0.2,1.6c1.9,1.5,3.8,3,6.8,3.2
				C227.9,364.9,227.8,363.3,227.9,361.6z"/>
			<path d="M648.4,265.6c0.3-0.2,0.6-0.3,1-0.5C649,265.3,648.7,265.4,648.4,265.6z"/>
			<path d="M645.5,264l1.4,2.4c-3.8,2.1-7.5,4.4-11.3,6.5c-0.1,0-0.2,0.1-0.2,0.1c-0.1,0.1-0.3,0.1-0.4,0.2
				c-0.2,0.1-0.4,0.2-0.7,0.4c-0.2,0.1-0.4,0.2-0.6,0.3c-1.7,0.8-3.4,1.6-5,2.4c-0.3,0.2-0.7,0.3-1,0.6c0,0-0.1,0-0.1,0.1
				c-3.8,1.9-7.9,3.8-10,4.8c-0.1,0.1-0.3,0.1-0.4,0.2c-3.2,1.5-6.3,3.2-9.5,4.8c-0.1,0-0.1,0.1-0.2,0.1c-1.5,0.8-3.2,1.3-4.7,2.1
				c-1.6,0.8-3.1,1.9-4.7,2.7c-0.1,0.1-0.2,0.1-0.4,0.2c-0.1,0-0.1,0.1-0.2,0.1c-2.1,0.9-4.3,1.6-6.3,2.6
				c-5.2,2.6-10.3,5.3-15.5,7.9c-0.2,0.1-0.4,0.2-0.5,0.3c-2.7,1.3-5.7,2.1-8.5,3.3c-1.3,0.6-12.4,4.5-16.9,6.5l0,0
				c-0.5,0.2-0.9,0.4-1.2,0.6c-0.1,0.1-0.2,0.1-0.4,0.2c-0.4,0.2-1,0.3-1.7,0.5c-2,0.3-4.1,0-5.5,0.9c0,0-0.1,0-0.1,0.1
				c-3.7,0.5-7.6,0.9-9.6,1.1c-0.2,0-0.3,0-0.5,0.1c-2.5,0.4-5,0.7-7.6,1c-2.2,0.2-4.5,0.2-6.6,0.6c-3.7,0.6-7.3,1.5-11,2.3
				c-0.1,0-0.3,0.1-0.4,0.1c-0.2,0-0.3,0.1-0.5,0.1c-4.7,0.5-9.5,1-14.2,1.6c-1.5,0.2-3,0.9-4.5,1.3c0,0-0.1,0-0.1,0
				c-0.5,0.1-1,0.2-1.4,0.1c-1.4-0.3-2.7-0.2-3.9,0.1l-0.6-2c4.1-1.1,7.9-2.2,10.1-2.6c4-0.8,13.4-2.4,14.1-2.5
				c1.5-0.3,3.3,0.7,4.6-0.7c1.5-0.2,3.4-0.5,5.4-0.8c1,0,2-0.1,3-0.4c7.2-1,15.4-2.1,18.6-2.5c0.2,0,0.4,0,0.6-0.1
				c0.2,0,0.5,0,0.8,0c3.6-0.5,7.2-0.8,10.7-1.6c0.1,0,0.2,0,0.3-0.1c2.1-0.5,4.3-1,6.1-2c2.2-0.9,4.3-1.7,4.9-2
				c0.1,0,0.2-0.1,0.3-0.1c0.1-0.1,0.2-0.1,0.3-0.2c0.2-0.1,0.4-0.2,0.7-0.3c2.1-1,6.2-2.9,10.9-5.2c0.5-0.2,0.9-0.4,1.4-0.7
				c4.8-2.3,10.1-4.9,14.5-7c0.4-0.1,0.8-0.3,1.1-0.4c2.5-1.1,4.9-2.4,7.3-3.6c0.1-0.1,0.3-0.1,0.4-0.2c0.3-0.2,0.5-0.3,0.7-0.3
				c2-1,4.1-1.9,6.1-2.8c0.1,0,0.1-0.1,0.2-0.1c2.3-1,4.8-1.7,7-3c0.8-0.5,1.6-0.9,2.4-1.3c1.4-0.6,2.8-1.3,4.2-2
				c1.9-0.8,3.9-1.5,6-2.2c1-0.3,1.8-1.1,2.7-1.9c2.9-1.4,5.3-2.5,6.6-3.2c0.4-0.2,0.7-0.4,0.9-0.5
				C633.6,270.3,638.9,267.4,645.5,264z"/>
			<path class="st1" d="M638.7,355c2.4,0.7,1.7,2.9,1.2,3.8c-1.8,3.2-2.9,6.6-4,10.1c-0.1,0.3-1.8,0.6-2.4,0.2c-1.6-1-3-2.5-4.6-3.6
				c-4-3-8.2-5.8-12.2-8.8c-0.9-0.7-1.5-1.7-2.7-3c6.6-0.3,12.4-0.9,18.2-0.8C634.4,352.9,636.5,354.3,638.7,355z"/>
			<path d="M641.1,349.4c-1.1,0.6-2.2,1.2-2.7,1.4c-1.2-0.5-2.1-1-2.9-1C636.4,349.8,640,350,641.1,349.4z"/>
			<path d="M634.8,273.3c0.1-0.1,0.3-0.1,0.4-0.2C635.1,273.1,635,273.2,634.8,273.3z"/>
			<path d="M635.2,330.4c-0.7,0.3-1.4,0.6-2.1,0.7C633.4,331,634.2,330.8,635.2,330.4z"/>
			<path d="M628.5,276.3c1.7-0.8,3.4-1.6,5-2.4c-1.6,0.8-3.8,1.9-6.1,3c0,0,0.1,0,0.1-0.1C627.9,276.6,628.2,276.4,628.5,276.3z"/>
			<path class="st1" d="M631.6,372.6c-2,2.2-3.8,4.1-5.5,6.1c-1.5,1.7-4,2.1-6,0.8c-0.3-0.2-0.8-0.4-1.2-0.3
				c-2.6,0.6-3.7-1.6-5.1-2.9c-2.5-2.2-4.7-4.8-7-7.2c-1.5-1.6-3-3.2-4.7-4.5c-1.8-1.5-3.9-2.6-5.9-4c-0.8-0.6-1.6-1.2-2.5-1.8
				c-2.6-1.8-5.3-3.4-7.9-5.3c-0.7-0.5-1.1-1.4-1.9-2.4c5.5,0,10.7-0.5,15.7,0.2c2.3,0.4,5.3,1,7.3,3.4c1.2,1.5,3.5,2,5.2,3.1
				c2.9,1.9,5.6,4,8.4,5.9c1.6,1.1,3.6,1.7,5,2.9C627.8,368.6,629.8,370.8,631.6,372.6z"/>
			<path d="M625.2,274.3c-0.9,0.7-1.7,1.5-2.7,1.9c-2,0.7-4,1.4-6,2.2C619.6,277,622.6,275.6,625.2,274.3z"/>
			<path d="M627.1,410.6c-2.6-0.6-5.3-1.1-7.9-1.7c-1.4-0.3-3.5-0.5-4.1-1.5c-1.4-2.3-4.3-0.5-5.7-2.7c-0.1-0.2-0.3-0.4-0.6-0.5
				C614.3,406.3,624.6,410,627.1,410.6z"/>
			<path d="M615.6,342.8c1.5-0.3,5.3-1.1,6.5-2.4c-1.2,1.5-2.3,2.8-4.5,2.4C616.9,342.6,616.2,342.7,615.6,342.8z"/>
			<path class="st0" d="M619.1,348.1c-0.8,0.6-1.4,1.4-2.3,1.6c-2.3,0.5-4.7,1-7.1,1c-1.3,0-2.5-0.9-3.8-1.4
				c0.1-0.2,0.3-0.4,0.4-0.6c3.4-0.6,6.9-1.4,10.3-1.8C617.4,346.7,618.3,347.6,619.1,348.1z"/>
			<path class="st1" d="M611.7,379.3c0.2,0.2,0.3,0.7,0.6,1.4c-4.6,0-8.9,0.6-12.8-0.2c-2.3-0.5-4.8-0.5-6.8-1.5
				c-3.3-1.6-5.9-4.8-9.3-6.4c-4.3-2.2-7-6.2-11-8.7c-2.5-1.6-4.6-3.8-6.9-5.7c-2.5-2.1-5-4.2-7.6-6.5c2.9-1.5,5.8-1,8.6-0.8
				c0.9,0.1,1.8,0.3,2.7,0.3c2.8,0,5.2,0.9,7.6,2.2c2.4,1.3,5.2,2,7.6,3.4c3.7,2.3,7.3,4.9,10.8,7.5c2.1,1.5,4.1,3.1,6,4.9
				c2.3,2.1,4.3,4.3,6.5,6.4C609,376.9,610.4,378,611.7,379.3z"/>
			<path d="M612.4,280.3c-0.8,0.4-1.6,0.9-2.4,1.3c-2.2,1.3-4.6,2-7,3C604.1,284.2,607.9,282.4,612.4,280.3z"/>
			<path d="M602.7,288.8c1.5-0.8,3.2-1.4,4.7-2.1c-1.8,0.9-7.3,3.8-9.4,4.8C599.7,290.7,601.1,289.6,602.7,288.8z"/>
			<path d="M603.6,400.5c-0.6-2.3-1-4.6-1.5-6.9c-0.1-0.3,0.1-0.8-0.1-1c-1.1-0.9-1.5-1.9-1.5-2.9c-0.1-1.6,0.5-3.4,0-5.2
				C601.2,387.3,602.8,397.2,603.6,400.5z"/>
			<path d="M592.4,347.4c5.5-0.8,11.2-1.7,13.1-2.1c-2.3,0.5-4.7,1-7.1,1.5c-0.2,0.1-0.4,0.2-0.6,0.4c-1.3,1.7-2.7,1.1-4.3,0.5
				C593.2,347.6,592.8,347.5,592.4,347.4z"/>
			<path d="M597.7,291.7c0.1-0.1,0.2-0.1,0.4-0.2C597.9,291.6,597.8,291.6,597.7,291.7z"/>
			<path d="M597.5,390c0,0.2,0,0.3,0,0.5c-0.6-2.8-1.1-5.3-1.3-6.6C596.7,386.2,597.4,388.1,597.5,390z"/>
			<path d="M596.1,383.3c0,0.2,0.1,0.3,0.1,0.5C596.2,383.6,596.1,383.4,596.1,383.3z"/>
			<path d="M587.2,292.1c3.7-1.8,6.8-3.3,8.4-4.1c-2.4,1.2-4.8,2.5-7.3,3.6C587.9,291.9,587.5,292,587.2,292.1z"/>
			<path d="M591.1,294.3c2-1,4.3-1.6,6.3-2.6c-2.8,1.3-16.3,7.7-21.9,10.4C580.8,299.7,585.9,296.9,591.1,294.3z"/>
			<path class="st1" d="M585.3,379c-0.7,0.1-1.1,0.2-1.6,0.2c-4.3,0-8.5-0.2-12.8,0.1c-2.9,0.2-5.1-1-7.5-2.3
				c-2.1-1.2-4.7-1.8-6.7-3.2c-3.4-2.5-6.4-5.5-9.7-8.1c-2-1.6-4.4-2.9-6.5-4.4c-2.1-1.5-4.2-3-6.1-4.6c-1.9-1.5-3.7-3.2-5.8-5
				c0.6-0.1,1-0.3,1.5-0.3c2.7,0,5.3,0.1,8,0c5.7-0.4,11,1,16.2,3c2.5,1,4.6,2.8,6.8,4.5c2.2,1.7,3.9,3.9,6.5,5.2
				c2.5,1.3,4.3,4.1,6.5,6.1C577.6,373,581.3,375.8,585.3,379z"/>
			<path d="M559.8,342.8c0.1,0.3,0.2,0.6,0.3,1C560,343.5,559.9,343.2,559.8,342.8z"/>
			<path class="st1" d="M558.1,380.5c-2.6,0-5.2,0-7.8,0c0.4-1.9,0.8-3.5,1.1-5.2C554.8,376.2,557.2,378,558.1,380.5z"/>
			<path class="st0" d="M556.2,383.4c0.2,0.2,0.5,0.5,0.7,0.8c-0.4,0.8-0.7,1.6-1.1,2.3c-2.4,4.7-6.3,8.2-10.1,11.7
				c-2.8,2.6-5.7,5.2-8.6,7.7c-0.1,0.1-0.3,0.2-0.6,0.4c-0.2,0.1-0.3,0.2-0.5,0.3c-0.8,0.4-1.6,0.7-2.4,1.1c-1,0.5-2,0.8-3.3,1.4
				c0.1-0.6,0.1-1.4,0.5-1.9c2.3-2.9,4.7-5.6,7-8.5c1.8-2.3,3.4-4.7,5-7.2c0.8-1.1,1.4-2.4,2.1-3.6c1.5-2.5,3.6-3.7,6.7-3.3
				C553,384.8,554.6,383.8,556.2,383.4z"/>
			<path d="M555.6,336.4c0,0.2,0.1,0.4,0.1,0.5c-0.5-0.5-0.9-1-1.1-1.2C554.9,336,555.5,336.1,555.6,336.4z"/>
			<path d="M548,309.6c1.3-0.3,3.8-1.2,6.1-2C552.3,308.6,550.1,309.2,548,309.6z"/>
			<path class="st0" d="M547,372.9c0.4,3.2-3.1,7.2-6.5,6.7c-1.5-0.2-2.5-1.2-2.1-2.8c0.5-1.8,0.8-3.8,1.9-5.2
				c0.5-0.7,2.5-0.7,3.8-0.5C545,371.2,545.9,372.2,547,372.9z"/>
			<path class="st0" d="M539.8,382.2c1.3,0,2.6,0,4.7,0c-0.5,1.1-0.8,2-1.3,2.7c-1,1.6-1.9,3.2-3,4.7c-2.7,3.8-5.5,7.5-8.3,11.2
				c-2.3,3-4.8,6-7.2,8.9c-1.9,2.2-4.3,3.5-7.4,3.6c-0.6,0-1.2,0.6-1.8,0.8c-0.1,0-0.2,0.1-0.3,0.1c-0.6,0.2-1.4,0.5-2.2,0.7
				c-0.5-0.1-0.9-0.4-1.4-1.1c-0.6-0.8-2.7-0.5-4.7-0.8c0.6-0.9,1-1.7,1.7-2.3c2.1-2,4.5-3.8,6.5-5.9c1.9-2,3.6-4.2,5.2-6.4
				c2.4-3.3,4.8-6.6,7-10c2.4-3.6,4.6-7.2,6.8-10.9c0.4-0.6,0-1.7,0.2-2.4c0.2-0.5,0.9-0.8,1.4-1.2c0,1.4,0,2.7,0,4.1c0,0,0,0,0,0
				C535.7,381.1,536.7,382.2,539.8,382.2z"/>
			<path d="M540.9,314.5c1.4-0.9,3.5-0.5,5.5-0.9c-1.5,0.4-3.5,0.7-5.7,1C540.8,314.5,540.8,314.5,540.9,314.5z"/>
			<path class="st0" d="M543.9,367.8c-1.6,0.1-3.3,0.1-4.9,0.2c-0.1,0.2-0.2,0.4-0.3,0.7c-0.7,1.7-1.6,4.1-1.9,4.8
				c-0.1,0-0.1,0-0.2,0.1c-0.1,0-0.3,0-0.4,0c-0.2,0,0.5-4.4,1.1-6.6C541.6,366.3,543.7,366.6,543.9,367.8z"/>
			<path d="M536.8,373.5c0.3-0.7,1.3-3.1,1.9-4.8c-0.6,1.6-1.1,3.2-1.8,4.7C536.9,373.4,536.9,373.5,536.8,373.5
				C536.9,373.5,536.8,373.5,536.8,373.5z"/>
			<path class="st0" d="M535.7,373.7C535.7,373.7,535.7,373.7,535.7,373.7C535.7,373.7,535.7,373.7,535.7,373.7L535.7,373.7
				C535.6,373.7,535.6,373.7,535.7,373.7C535.7,373.7,535.7,373.7,535.7,373.7z"/>
			<path class="st0" d="M535.7,373.7C535.7,373.8,535.6,373.8,535.7,373.7C535.6,373.8,535.6,373.7,535.7,373.7L535.7,373.7
				C535.7,373.7,535.7,373.7,535.7,373.7z"/>
			<path class="st0" d="M532.3,369.8c0.2,0.1,0.5,0.2,0.7,0.3c-0.8,1.7-1.5,3.5-2.3,5.2c-0.1,0.3-0.5,0.6-0.5,0.8
				c1,3.3-2.6,4.5-3.3,7.1c-0.6,2.3-3.1,4.1-4.6,6.2c-1.2,1.7-2.2,3.7-3.4,5.4c-1.1,1.6-2.4,3-3.6,4.5c-1.2,1.5-2.3,3.2-3.6,4.6
				c-3.3,3.4-7.1,5.9-11.4,8.1c-2,1-3.8,0.9-5.7,1.4c-3.3,0.8-4.5-2-6.6-3.3c-0.1-0.1,0-1,0.2-1.2c4.6-3.5,8.7-7.6,12.2-12.3
				c1.3-1.7,2.2-3.4,2.9-5.5c0.5-1.7,1.5-3.3,2.2-5c0.8-2,1.8-3.9,2.2-6c0.8-4.2,1.7-8.4,4.2-11.8c2.3-3.1,4.1-6.8,7.9-8.7
				c1.7-0.8,3.3-2.1,5-2.8c1.9-0.9,4.3,0.4,5.5,2.8c-3,0-5.7,0-8.4,0c0,0.9-0.1,1.7-0.3,2.5c-1.1,2.3-1.9,4.3-1.5,6.8
				c0,0.1,0.1,0.3,0.1,0.5c0.4,1.4,3.1,4.1,4.5,4.4C528.4,374.7,529.8,371.2,532.3,369.8z"/>
			<path class="st0" d="M530.3,363.5c0.5,0.1,0.9,0.4,2.3,0.9c-2.1,2.3-3.7,4.4-5.6,6.1c-1.3,1.2-3.7-0.3-3.8-2.1c0-0.5-0.1-1,0-1.5
				c0.4-1.5,0.7-4.2,1.5-4.3C526.4,362.2,528.4,363,530.3,363.5z"/>
			<path class="st1" d="M524.1,352.5c0,0.2,0,0.4-0.1,0.6c-3.9,2.5-7.8,5-11.8,7.5c-3.4-2.9-7-5.9-10.6-8.9c0.1-0.3,0.1-0.6,0.2-0.9
				C509.3,351.3,516.7,351.9,524.1,352.5z"/>
			<path d="M521.5,362.1c-0.6,2.3-1.8,4.4-1.5,6.8C519.6,366.4,520.4,364.4,521.5,362.1z"/>
			<path d="M516.5,317.3c2.2-0.4,4.4-0.3,6.6-0.6c-2.1,0.2-13.5,2-17.6,2.8C509.2,318.8,512.8,317.9,516.5,317.3z"/>
			<path d="M514.1,314.3c1-0.1,2-0.3,3-0.4C516.2,314.2,515.2,314.3,514.1,314.3z"/>
			<path d="M512.9,414.8c0.9-0.2,1.6-0.4,2.2-0.7C514.4,414.4,513.7,414.9,512.9,414.8z"/>
			<path class="st1" d="M507.9,361.2c1.5,0.6,2.9,2,2.3,4c-0.3,1-1.1,1.8-1.9,3c-0.6-1.2-0.9-1.9-1.1-2.3c-3-2.9-6.6-2.3-10-2.1
				c-1.3,0-2.5,1.1-3.9,1.4c-3.6,0.9-6.1-1.1-8.5-3.3c-0.3-0.3-0.7-0.7-1.1-0.9c-3-1.2-5.3-3.2-7.6-5.4c-1-1-2.5-1.4-3.8-2.1
				c0-0.2,0-0.5,0-0.7c2.9-0.5,5.9-1.2,8.8-1.5c3-0.3,6-0.1,9,0c3.5,0.1,6.3,1.6,9.3,3.4C502.6,356.5,504.4,359.8,507.9,361.2z"/>
			<path d="M508.8,315c-1.2,1.4-3.1,0.4-4.6,0.7C504.6,315.7,506.3,315.4,508.8,315z"/>
			<path class="st0" d="M499.2,372.2c1.7,0,3.5,0,6,0c-0.8,2.5-1.2,4.8-2.3,6.7c-0.6,1-2.6,1.8-3.8,1.6c-1-0.1-2.5-1.5-2.8-2.6
				c-0.5-1.7-0.1-3.6-0.1-5.7C497.4,372.2,498.3,372.2,499.2,372.2z"/>
			<path class="st0" d="M504.7,368.4c-0.1,0.4-0.2,0.8-0.3,1.2c-1.9-0.4-3.8-1.4-5.5-1.1c-1.7,0.3-4.2,0.3-5,2.5
				c-0.8,2.1-1.5,4.2-1.6,6.4c-0.2,3.9,5,6.9,8.6,5.1c0.6-0.3,1.4-0.2,2.6-0.3c-0.7,2.1-1.1,3.8-1.9,5.4c-1.2,2.6-2.3,5.4-4,7.6
				c-2.3,2.9-5.1,5.5-7.8,8.1c-1.9,1.8-3.9,3.7-6.1,5.2c-2,1.3-4.2,2.2-6.3,3.4c-1.5,0.8-3.1,1.6-4.5,2.5c-2.2,1.4-9.1,0.4-10.6-1.7
				c-1.4-2-2.9-4-4-6.1c-0.8-1.5-0.7-3,0.4-4.9c1.2-2,2.8-3.8,3.8-6.2c0.8-1.8,4.3-4.4,7.2-6.3c0,0,0,0,0.1,0c1.1-0.1,2-1.2,3-1.8
				c0.1,0,0.2-0.1,0.2-0.1c0,0,0,0,0,0c0.1,0,0.1-0.1,0.2-0.1c0.9-0.4,2-0.3,2.9-0.2c0.5,0,1.2,0.9,1.3,0.8c0.7-0.5,1.4-1.1,1.6-1.8
				c0.6-2,1.3-3.9,2.9-5.4c1-0.9,1.2-2.5,2.1-3.6c2.5-3.3,5.4-6.4,9.2-8.1c2-0.9,4-2.8,6.6-2C501.6,367.2,503.1,367.8,504.7,368.4z"
				/>
			<path class="st1" d="M486.6,368.4c0,0.1,0,0.3,0,0.6c-1.3,1-2.8,2-4,3.2c-0.9,0.9-1.2,2.3-1.9,3.3c-0.6,0.9-1.6,2.5-2.2,2.4
				c-1.7-0.3-3.4-1-4.8-2c-2.1-1.6-4-3.6-5.9-5.5c-1.9-1.9-3.6-3.9-5.6-5.6c-2.1-1.9-4.5-3.5-6.7-5.3c-0.8-0.6-1.4-1.5-2.6-2.7
				c2.3-0.2,6.7-2.1,8-3c1.7-1.2,5.3-1.1,6.9,0.2c1.7,1.4,3.5,2.8,5.3,4.1c2.7,1.9,5.6,3.5,8.2,5.5
				C483.2,365.3,485.9,365.8,486.6,368.4z"/>
			<path d="M484.6,322.7c0.4,0.1,0.9,0,1.4-0.1c-1.3,0.4-14.6,4.1-16.8,5.2c2.2-1.2,4.3-2.7,6.7-3.4c1.6-0.4,3.1-1.1,4.7-1.5
				C481.9,322.5,483.2,322.4,484.6,322.7z"/>
			<path class="st0" d="M475.8,380.7c-2.9,3-5.6,4.9-9.2,5.6c-0.5-1.6-0.8-2.7-1.2-4.2c1.7,0,3.4,0.2,5.2-0.1
				C472.1,382,473.6,381.4,475.8,380.7z"/>
			<path class="st1" d="M471.4,377.9c-0.3,0.3-0.5,0.7-0.8,1.1c-0.5,0.1-1,0.3-1.5,0.3c-2.6,0-5.2-0.1-7.7,0
				c-3.6,0.2-6.6-1.2-9.7-2.5c-2.4-1-4.9-1.8-7.1-3.2c-3.2-2.2-6.1-4.8-9-7.2c-2.2-1.9-4.4-3.7-6.6-5.6c-3-2.6-6-5.4-9-7.9
				c-1.2-1-2.7-1.8-4.5-2.9c1.8-0.3,3.3-0.4,4.7-0.7c3-0.7,4.3,1.1,5.5,3.4c1.1,2,2,4.1,4.8,4.2c1,0.1,1.9,0.9,2.8,1.5
				c4.1,2.4,8.2,1.7,12.5,0.1c1.2-0.4,3.4,0.8,4.8,1.8c2.3,1.5,4.4,3.2,6.4,5c2.3,2,4.4,4.2,6.7,6.2
				C466.2,373.6,468.9,375.7,471.4,377.9z"/>
			<path d="M472.4,323.1c-2.1,1.2-4.9,1.6-7.4,2.1C466.2,324.9,469,324.1,472.4,323.1z"/>
			<path d="M469.7,389.1c-2.9,1.8-6.4,4.5-7.2,6.3C463.7,392.5,465.7,389.5,469.7,389.1z"/>
			<path class="st0" d="M463.7,387.6c-4.5,0.3-8.4-1.1-12.3-3.7c-1.3,1.6-3.5,3.4-4.3,5.6c-0.8,2.2-0.6,5-0.1,7.4
				c0.2,1.2,1.9,2.5,3.2,3.1c2,0.8,3.6-0.7,5.1-1.7c0.3-0.2,0.6-0.4,0.8-0.7c0.2,0.1,0.5,0.3,0.8,0.4c-0.4,0.7-0.6,1.6-1.2,2.2
				c-1.4,1.4-2.8,2.7-4.4,3.8c-2.8,1.9-6.1,3.3-9.1,2c-3.8-1.6-8.3-1.9-11.2-5.3c-1.2-1.4-2.4-3.1-2.6-4.8c-0.4-3.9,0-7.8-0.2-11.7
				c-0.1-2.6,1.2-2.6,3-2.3c2.6,0.5,5,0.5,7.4-1c0.6-0.4,1.7-0.1,3-0.1c-1.9,2.2-3.5,4.2-5.4,6.3c3,1.4,4.4-0.8,5.9-1.7
				c2.4-1.6,4.6-3.3,7.7-3.3c2.6,0,5.2,0,7.8,0C460.1,382.3,462.9,384.8,463.7,387.6z"/>
			<path class="st0" d="M451.2,389.4c2.9-1.9,5.4,0.5,8.3,1.7c-3.1,2.5-5.1,6-9.7,5C449.7,393.7,448.9,390.9,451.2,389.4z"/>
			<path d="M446.9,330.5c-0.2,0.2-0.3,0.4-0.5,0.6c-0.5,0.7-1.4,1.2-2.3,1.6c-1.2,0.6-2.7,1-3.8,1.7
				C441.4,333.6,444.1,332,446.9,330.5z"/>
			<path class="st0" d="M443.2,338.5c1.1,0.5,1.6,2.3,2.5,3.7c-2.4,1-4.2,1.6-5.9,2.4c-1.7,0.9-3.1,1.2-4.6-0.5
				c-0.7-0.9-1.8-1.5-2.9-2.3c2.6-1.2,4.5-2.2,6.6-2.9C440.3,338.4,442.1,337.9,443.2,338.5z"/>
			<path class="st1" d="M441.8,376.2c0.3,0.2,0.4,0.6,0.7,1.3c-2.7,0.2-5,0.4-7.2,0.7c-4,0.6-7.7-0.4-11.3-1.7
				c-3.3-1.2-6.5-2.6-9.4-4.6c-2.8-1.8-5-4.5-7.6-6.6c-3.8-3-7.9-5.7-11.7-8.7c-2.7-2-5.3-4.2-8.3-6.6c0.9-0.2,1.4-0.4,1.9-0.4
				c5.1,0,10.3-0.7,15.2,0.2c4.1,0.8,8.8,1.1,12,4.9c1.8,2.1,4.5,3.4,6.7,5.2c3.4,2.8,6.7,5.9,10.1,8.7
				C435.7,371.3,438.8,373.8,441.8,376.2z"/>
			<path d="M429,352c1.3,1.2,10.3,5.5,13.7,3.5c-3.1,2.1-6.2-0.1-9.2-0.4C431.9,354.9,430.3,353.2,429,352z"/>
			<path d="M439.8,334.8c-2.2,1.8-4.4,3.4-7.4,3.5c-0.2,0-0.3,0-0.5,0.1C433.5,337.8,437.9,336.3,439.8,334.8z"/>
			<path d="M431.5,338.5c0.1,0,0.1-0.1,0.2-0.1C431.6,338.4,431.6,338.5,431.5,338.5z"/>
			<path d="M427.9,345.8c-0.6,0.4-0.4,2,0,3.5C426.8,348.1,426.8,346.6,427.9,345.8z"/>
			<path class="st1" d="M414.6,376.6c0.6,0.6,0.9,1.4,1.7,2.6c-6.4,0-12,0.4-17.5-0.1c-3.5-0.4-6.8-2.2-10.2-3.5
				c-1.5-0.6-3.1-1.1-4.5-1.9c-1.4-0.9-2.7-2.2-3.9-3.5c-2-2-3.8-4.2-5.8-6.2c-2.1-2.1-4.3-4-6.5-5.9c-2.7-2.3-5.4-4.6-8.1-6.9
				c-0.3-0.3-0.4-0.7-0.8-1.5c6,0,11.6-0.6,17,0.2c4.8,0.7,9.4,2.4,12.9,6.4c2,2.4,5,3.9,7.5,5.9c3.2,2.6,6.2,5.4,9.5,8.1
				c0.7,0.6,1.9,0.5,2.6,1.1C410.6,373,412.6,374.8,414.6,376.6z"/>
			<path class="st1" d="M375.2,369.7c3.4,3.1,6.8,6.2,10.1,9.3c-3.6,3-8.5,2.2-12.6,1.4c-5.2-1-10.2-3.1-14.5-6.7
				c-3.1-2.6-6.2-5.3-9.1-8.1c-2.2-2-5-3.2-7.5-4.9c-1-0.7-1.8-1.7-2.9-2.4c-2.2-1.6-4.5-3-6.7-4.6c-0.6-0.4-0.8-1.3-1.4-2.3
				c3-0.3,5.7,0.1,7.9-0.8c3.2-1.4,6.3-0.9,9.4-0.8c3.8,0.1,7.1,1.9,10.1,4.2c2.6,2.1,5.1,4.4,7.6,6.6
				C368.6,363.7,371.9,366.7,375.2,369.7z"/>
			<path class="st1" d="M356.7,376.7c0.6,0.5,1,1.2,1.9,2.5c-6.5,0-12.2,0.7-17.7-0.3c-3.4-0.6-7.1-2-10.3-4.6
				c-3.5-2.8-5.7-6.8-9.5-9.3c-3.6-2.5-6.7-5.6-10.3-8.2c-3.2-2.3-6.8-4-10.2-6.1c-0.5-0.3-0.6-1.4-1.1-2.4c5,0,9.5-0.4,14,0.1
				c2.9,0.3,5.8,1.7,8.5,3c2.4,1.1,4.8,2.5,7,4c2.6,1.8,4.8,4,7.5,5.6c2.3,1.3,3.8,3.5,6.5,4.5c1.9,0.7,3.2,2.9,4.9,4.3
				C350.7,372.1,353.7,374.3,356.7,376.7z"/>
			<path class="st1" d="M328,377.1c-0.1,0.2-0.2,0.4-0.3,0.6c-4.3,0-8.7,0.6-12.8-0.2c-4.6-0.9-9.2-2.3-13-5.4
				c-3.1-2.6-5.7-6-9.2-7.9c-2.4-1.3-4.1-3.1-6-4.6c-3.8-3-7.2-6.4-10.9-9.5c-0.7-0.6-1.6-0.8-2.4-1.2c0-0.2,0.1-0.5,0.1-0.7
				c4.3,0,8.9-0.8,13,0.2c4.2,1.1,8.8,2.2,12.5,5.1c1.7,1.4,4,1.9,5.8,3.2c2.8,2,5.3,4.5,8.2,6.3c1.7,1.1,3.2,2.1,4.6,3.6
				C320.9,370.2,324.5,373.6,328,377.1z"/>
			<path class="st1" d="M300,375.4c-0.1,0.2-0.1,0.4-0.2,0.7c-1.2,0.2-2.5,0.3-3.7,0.6c-1.3,0.3-2.6,1-3.8,0.9
				c-4.7-0.4-9.4-0.9-13.5-3.6c-1.4-0.9-3.4-1-4.9-1.9c-1.8-1-3.3-2.5-4.9-3.8c-1.5-1.1-3.2-2-4.7-3.2c-1.3-1-2.5-2.2-3.8-3.3
				c-2.8-2.4-5.6-4.8-8.5-7.1c-2.2-1.8-4.5-3.5-6.8-5.3c-0.2-0.1-0.2-0.6-0.3-1.3c5,0,9.9-0.4,14.7,0.1c3.8,0.4,7.6,1.4,11.1,3
				c2.9,1.4,5.3,3.9,7.8,6.1c2.2,1.9,3.9,4.4,6.3,5.9c3.2,2,5.8,4.5,8.4,7.1C295.1,372.4,297.7,373.8,300,375.4z"/>
			<path class="st1" d="M274,377.5c-0.3,0.1-0.8,0.2-1.3,0.2c-4.8,0-9.7,0.4-14.5-0.1c-2.7-0.3-5.2-2-7.8-3.1
				c-0.9-0.4-1.9-0.8-2.9-0.7c-3.5,0.5-5.4-1.6-7.3-4c-0.4-0.5-0.7-1.2-1.2-1.4c-3.5-1.4-2.8-4.4-2.8-7.1c0-0.7-0.1-1.3,0-2
				c0.4-3.1,0.9-6.3,1.5-10.3c2.2,1.7,3.8,3,5.5,4.3c2.9,2.2,5.9,4.3,8.9,6.4c1.1,0.8,2.4,1.6,3.2,2.7c1.1,1.4,2.3,2.3,4.1,3
				c1.9,0.8,3.1,3.1,4.9,4.2c2.2,1.3,3.7,3.4,6.2,4.3C272.1,374.4,272.9,376.2,274,377.5z"/>
			<path class="st0" d="M269.9,389.7c0.1,0.3,0.4,0.6,0.4,0.9c0,0.4-0.2,0.9-0.4,1.3c-1.4,3-2.1,6.7-6.5,7.3c-1,0.1-1.9,0.9-2.8,0.9
				c-3.5,0.3-6.4-0.8-8.9-3.5c-1.5-1.6-3.9-2.3-5.9-3.4c-0.9-0.5-1.6-1.2-2.4-1.9c0-0.2,0.1-0.4,0.1-0.6c0.9,0,1.9,0,2.9,0
				c2.8,0.1,4.7-1.8,6.8-3.3c1.2-0.9-0.2-5.4-1.8-6.7c-0.4-0.4-0.8-0.8-1.2-1.3c-0.4-0.5-0.8-1-1.1-1.5c0.8,0.1,1.7,0,2.3,0.4
				c3.8,2.3,7.6,4.8,11.4,7.1c0.9,0.5,1.9,0.7,2.9,1c0.1-0.2,0.3-0.5,0.4-0.7c-0.9-1-1.7-2.1-2.7-3.3c1.8-0.3,3.5-0.5,5.5-0.9
				c0,1.7-0.1,3.2,0,4.7C269,387.4,269.5,388.6,269.9,389.7z"/>
			<path d="M263.1,403.2c0.1,0,0.1,0,0.2,0C263.3,403.2,263.3,403.2,263.1,403.2z"/>
			<path d="M262.4,403.2c0.1-0.1,0.5,0,0.8,0C263,403.2,262.7,403.2,262.4,403.2z"/>
			<path d="M252.9,402c0.3,0.2,0.6,0.6,0.9,0.9c-1.6-0.9-6.6-4.5-10-6.8C246.9,398,249.9,400,252.9,402z"/>
			<path class="st0" d="M247.3,381.2c1.3,1.2,4.1,1.7,2.7,5c-1.3,0.3-3.1,0.8-4.8,1.3c-0.4-2.1-4.5-1.8-3-5.3
				C244.1,383.3,245.1,379.2,247.3,381.2z"/>
			<path d="M237.3,337.6c1,2.3,5,7,6.5,6.9c-1.4,0.1-2.8,0.7-3.8,0.9C239,342.4,238.3,339.9,237.3,337.6z"/>
			<path class="st0" d="M240.2,374.5c-1,1.1-2.3,2.6-3.7,3.9c-1.4,1.4-3.6,1.1-4.1-0.6c-0.5-1.8-2-4,0.6-5.8
				c0.6-0.4,0.6-1.8,0.8-2.7C236.1,371.1,238,372.7,240.2,374.5z"/>
			<path class="st0" d="M236.4,398.9c0.5,1.8-0.6,2.9-1.6,3.7c-1.2,1-2.9,1.5-4.4,2c-0.9,0.3-2.4-0.5-2.7,1.3c0,0.2-1.2,0.2-1.9,0.2
				c-0.8,0-1.7-0.1-2.5,0c-4.1,0.6-7-1.9-9.8-4.2c-0.7-0.5-0.9-1.6-1.6-2.7c1.6,0.5,2.3,0.7,3.1,0.9c-0.1-1.3-0.1-2.7-0.4-3.9
				c-0.6-2.1-1.5-4.2-2.2-6.3c-1-3-1.5-6.3-3.2-8.9c-1.9-3-2.9-6.5-5.1-9.3c-0.4-0.5-0.1-1.7-0.1-2.7c3.6,2.7,6.7,2.1,8.9-1.3
				c2.1,2,4.2,4.1,6.4,6.1c0.5,0.4,1.2,0.7,1.9,0.8c0.1,0,0.1,0,0.2,0c2.2,0.5,4.5,1,6.8,1.5c0.4,0.1,1.2,0.5,1.2,0.7
				c0,3.9,2.5,6.8,4.1,10c0.9,1.7,0.5,4.3,1.8,5.5C237.3,394.5,235.8,396.8,236.4,398.9z M222.7,402.9c6.7,0.9,11.4-1.8,10.2-5
				c-1.7,0.6-3.4,1-5,1.7C226.3,400.4,224.8,401.5,222.7,402.9z M221.2,377.1c-2.8-0.5-7.3,1.8-7.6,3.4
				C217.1,381.8,218.7,379.1,221.2,377.1z"/>
			<path class="st0" d="M234.8,341.5c0,2,0.1,4,0,6c-0.1,1.5-0.8,3-0.9,4.6c-0.3,2.5-0.2,5.1-0.6,7.6c-0.3,1.8-1,3.4-1.5,5.1
				c-0.2,0-0.5-0.1-0.7-0.2c-0.2-1.8-0.6-3.7-0.7-5.5c-0.2-3.2-1.2-4.1-4.3-5.6c-1.9-0.9-3.3-1.1-4.6,0.2c-1.1,1.1-2.8,2.1-2.2,4.2
				c0,0.1,0,0.2,0,0.3c-0.2,0.5-0.3,0.8-0.3,1c0,0,0,0,0,0c0,0,0,0,0,0c-1.6,3-1.7,4.9,0.5,6.9c1.4,1.3,3.4,2.1,5.1,3.1
				c1.2,0.7,2.3,1.4,3.5,2.1c-0.1,0.2-0.2,0.5-0.4,0.8c-2,0-4,0.3-5.9-0.1c-1.2-0.3-2.1-1.8-3.2-2.7c-2.2-2-3.4-4.4-3.8-7.3
				c-0.5-4.1-0.7-8.4-1.6-12.4c-0.6-2.5,0.3-4.1,1.3-6.1c1.2-2.4,2-5,3.2-8.3c-1.6,1.3-2.9,2.2-3.9,3.3c-1,1.2-1.6,2.7-2.4,4.1
				c-4.5-3.9-8-8.5-9.5-14.4c-1.3,0.6-1.7,3.3-0.6,4.9c0.1,0.1,0.4,0.7,0.9,1.5c-0.5,3.7,2.9,5.2,4.6,7.7c0.5,0.7,0.9,1.6,1.5,2.8
				c-4.9,0-9,0.1-13.2-0.1c-0.6,0-1.3-0.3-1.8-0.7c-0.3-0.2-0.7-0.5-0.9-0.8c-2.3-2.8-7.2-3.4-10.5-1.4c-1.3,0.8-2.5,1.9-3.8,2.8
				c-0.4,0.3-1.2,0.3-1.7,0.2c-3.5-1.3-7.1-2.3-10.3-4c-2.8-1.6-5.2-4-7.6-6.2c-1.3-1.1-2.4-2.5-3.7-4c-0.8,1.8,0.3,2.6,0.8,3.8
				c0,0.1,0.1,0.2,0.1,0.3c0.8,1.9,2.1,3.2,3.5,4.3c1.8,1.8,3.6,3.5,3.4,4.2c-1.7,0.2-3.3,0.3-5,0.5c-0.6,0.1-1.2,0.1-1.8,0.2
				c0,0,0,0-0.1,0c-0.7,0.1-4.2-0.1-8.3-0.3c-1.7-0.4-3.3-0.8-5-1c-3.2-0.3-6.5,0.3-9.8,0.5c-2.1,0.2-4.2,0.7-6.4,0.6
				c-5.2,0-10.4-0.1-15.6-0.6c-1-0.1-2.2-1.8-2.7-3.1c-1.3-3.3-2.4-6.6-5-9.3c-2.1-2.1-3.6-4.9-5.9-6.8c-2.2-1.8-5-3-7.5-4.4
				c-4-2.1-8.2-3.1-12.8-3c-2.7,0-5.2-2-8.2-1.4c-2.2-2.8-5.8-1.4-8.7-2.7c-2.7-1.2-6.4-0.1-9.6-0.3c-5.7-0.4-11.3-0.9-17-1.5
				c-2.4-0.2-4.8-1-7.1-0.9c-5.3,0.3-10.6,0.9-16,1.5c-0.1,0-0.3,0-0.4,0c-2.3,0.2-6.4,0.6-9.8,1c0-21,0-42,0-63
				c0.4,0.2,0.8,0.5,1.2,0.7c0.5,0.3,1.1,0.6,1.6,0.9c0.3,0.2,0.6,0.4,0.9,0.6c0.4,0.2,0.7,0.4,1.1,0.6c0.2,0.1,0.4,0.2,0.5,0.3
				c0.3,0.2,0.6,0.3,0.9,0.5c0.3,0.2,0.5,0.3,0.8,0.4c0.1,0.1,0.3,0.2,0.4,0.2c0.1,0.1,0.2,0.1,0.4,0.2c0.1,0.1,0.2,0.1,0.4,0.2
				c0.2,0.1,0.3,0.2,0.4,0.2c2.2,1.2,4.8,1.9,6.9,3.1c4.4,2.5,8.6,5.5,13,8c3.1,1.7,6.4,3,9.6,4.5c1.4,0.7,2.8,1.4,4.3,1.9
				c1,0.4,2,0.6,3,1c1.8,0.7,3.7,1.4,5.5,2.1c1.7,0.6,3.4,1.2,5,1.9c0.1,0,0.2,0.1,0.3,0.1c2.1,0.8,4.1,1.7,6.2,2.5
				c1.8,0.7,3.7,1.2,5.5,1.9c2.1,0.8,4.1,1.7,6.2,2.4c2.2,0.8,4.5,1.3,6.8,2.1c1.9,0.7,3.7,1.5,5.5,2.2c0.4,0.1,3.6,1.2,4.7,1.6
				c0.1,0,0.2,0.1,0.3,0.1c0,0,0,0,0,0c0.1,0,0.2,0,0.4,0.1c3.3,0.6,13,2.8,15.8,3.6c0.1,0,0.2,0.1,0.2,0.1c0.9,0.3,2,0.1,2.9,0.5
				c2.4,1.2,5.2,1.1,7.7,2.6c2.1,1.3,5.1,1,7.6,1.7c2,0.6,4,1.5,6,2.3c0.6,0.2,1.2,0.5,1.8,0.6c5.3,1,10.6,2.1,15.9,3
				c0.1,0,0.2,0,0.2,0c1.6,0.3,5.9,1.2,10.1,2c0.2,0,0.3,0.1,0.5,0.1c2.8,0.6,5.4,1.1,7.2,1.5c0.7,0.3,1.5,0.4,2.3,0.4
				c2.6,0.1,5.2-0.1,7.7,0.1c5.5,0.4,11,0.8,16.5,1.5c3.4,0.5,6.7,1.5,10,2.5c0.1,0,0.2,0.1,0.3,0.1c0.1,0.1,0.3,0.2,0.5,0.3
				c1.2,0.7,2.2,1.8,3.4,2.2c0.4,0.1,0.8,0.3,1.1,0.4c5,3,11.7,7.6,13.6,10c1.2,1.5,2.6,2.8,3.7,4.3c2.5,3.2,5,6.4,7.4,9.7
				C234.9,340.3,234.8,340.9,234.8,341.5z M153,314.5c-0.3-0.1-0.6-0.2-0.9-0.3c-0.9,1.7-1.8,3.4-2.7,5.1c-2.4,1.2-5.1,2.1-7.2,3.8
				c-2.6,2-4.7,4.6-6.7,7.2c-1.2,1.5-1.7,3.5-2.4,5.3c-0.1,0.2,0.2,0.8,0.4,1c0.1,0.1,0.7,0,0.9-0.2c1.6-2,3.1-4,4.7-5.9
				c3.3-4,6.9-7.4,12.1-8.1C151.7,319.7,152.3,317.1,153,314.5z"/>
			<path d="M232.9,397.9c1.2,3.2-3.5,5.8-10.2,5c2.1-1.4,3.6-2.5,5.2-3.3C229.5,398.9,231.2,398.5,232.9,397.9z"/>
			<path class="st0" d="M225.7,356.7c1.7,0.3,2.3,1.6,2.2,4.9c-0.1,1.6,0,3.3,0,5.2c-2.9-0.2-4.9-1.7-6.8-3.2
				c-0.3-0.2-0.3-1.1-0.2-1.6c0.3-0.9,0.5-1.7,0.8-2.5c0.3-0.8,0.6-1.7,0.9-2.5c0.8-0.1,1.4-0.2,2-0.2
				C225,356.6,225.4,356.7,225.7,356.7z"/>
			<path d="M221.9,372.1l-0.6,2.7c-0.1,0-0.1,0-0.2,0c-0.7-0.2-1.4-0.4-1.9-0.8c-2.2-2-4.2-4-6.4-6.1c-2.2,3.5-5.3,4-8.9,1.3
				c0,1-0.4,2.2,0.1,2.7c2.2,2.8,3.2,6.3,5.1,9.3c1.7,2.6,2.2,5.9,3.2,8.9l-2.7,0.8c-0.6-1.4-1.2-2.7-1.8-4.1
				c-0.6-1.5-1.2-3-1.9-4.5c-1.1-2.1-2.5-4.1-3.5-6.2c-0.8-1.6-1-3.4-1.8-5c-1.9-4.2-3.7-8.4-3.8-13.2c0-0.6-0.2-1.1-0.5-1.6
				c-1.4-3.1-2.9-6.3-4.5-9.6l1.4-2.1c0.6,0.4,1.2,0.7,1.8,0.7c4.1,0.2,8.3,0.1,13.2,0.1c-0.6-1.2-1-2.1-1.5-2.8
				c-1.2-1.8-3.4-5.5-4.6-7.7c0-0.1,0-0.2,0-0.2c0.1-0.4-0.6-0.8-0.9-1.3c-1-1.6-0.7-4.3,0.6-4.9c1.5,5.8,5,10.4,9.5,14.4
				c0.8-1.3,1.4-2.8,2.4-4.1c1-1.1,2.3-2,3.9-3.3c-1.2,3.2-2,5.9-3.2,8.3c-1,2-1.9,3.7-1.3,6.1c0.9,4.1,1.1,8.3,1.6,12.4
				c0.4,2.9,1.6,5.3,3.8,7.3C219.8,370.3,220.7,371.8,221.9,372.1z M210.8,365c0.1-2.9,0-5.8,0-9.1c-2.1,0.6-3.9,0.8-5.5,1.5
				c-1.6,0.7-3,1.8-4.6,2.7c0.6,0.6,1.3,1,1.5,1.5c0.7,2.3,1.4,4.4,3.9,5.5C208.5,368.1,210.7,367.4,210.8,365z M205.4,348.4
				c-3.3,0-5.9,0-8.7,0c0.8,1.4,1.4,2.6,1.8,3.4C200.7,350.7,202.8,349.7,205.4,348.4z M207.8,353.2c-3.4-1.4-4.6-1.1-6.6,2.1
				C203.3,354.7,205.5,354,207.8,353.2z"/>
			<path d="M213.6,380.5c0.2-1.7,4.8-3.9,7.6-3.4C218.7,379.1,217.1,381.8,213.6,380.5z"/>
			<path d="M215.7,317.9c3.5,1.7,5.4,5,7.7,8c-1.9-2.4-8.6-6.9-13.6-10c1.1,0.5,2.2,0.9,3.1,1.1C214,317.2,214.9,317.5,215.7,317.9z
				"/>
			<path d="M219.4,358.3c0,0.3-0.2,0.7-0.3,1C219.1,359.1,219.2,358.8,219.4,358.3z"/>
			<path d="M217.9,317l-2.2,0.9c-0.8-0.4-1.7-0.7-2.7-0.9c-1-0.2-2.1-0.7-3.1-1.1c-1.9-1.2-3.6-2.1-4.6-2.7
				c-0.2-0.1-0.4-0.2-0.5-0.3c-0.1,0-0.2-0.1-0.3-0.1c-3.2-1.1-6.6-2.1-10-2.5c-5.4-0.8-11-1.1-16.5-1.5c-2.6-0.2-5.2,0-7.7-0.1
				c-0.2,0-1-0.2-2.3-0.4c-0.1-0.1-0.2-0.1-0.3-0.2c-2.1-1.5-4.6-0.9-7-1.3c-0.2,0-0.3-0.1-0.5-0.1c-0.6-0.1-1.3-0.4-1.9-0.8
				c-0.5-0.4-1.2-0.6-1.8-0.7l0.4-2.3c3,0.5,5.4,0.9,6.3,1.2c0.6,0.2,1.2,0.1,1.7,0.2c2.8,0.5,5.7,1,8.5,1.5c0.6,0.1,1.2,0,1.8,0
				c3.4,0,6.8-0.1,10.2,0.1c0.1,0,0.1,0,0.2,0c1,0.1,3.1,0.3,5.2,0.6c0.2,0.2,0.5,0.4,0.7,0.6c0.9,0.9,3.5,0,5.3,0.2
				c2.3,0.4,4.7,1,6.9,1.8c3,1.1,6.4,1.9,8.9,3.8C213.3,313.4,215.4,315,217.9,317z"/>
			<path class="st0" d="M210.9,355.9c0,3.4,0.1,6.2,0,9.1c-0.1,2.4-2.4,3.1-4.6,2.1c-2.5-1.2-3.2-3.2-3.9-5.5
				c-0.2-0.5-0.9-0.9-1.5-1.5c1.5-0.9,3-2,4.6-2.7C207,356.7,208.8,356.4,210.9,355.9z"/>
			<path class="st0" d="M210.6,393.3c0.2,0.8-0.3,2-0.6,2.9c-0.5,1.3-1.1,2.6-1.8,3.9c-1.2,2.2-2.7,3.6-5.1,4.9
				c-3.3,1.9-6.2,0.8-9.3,1.1c-1.1,0.1-2.4-1.1-3.8-1.9c-2.7-3-1.5-7-1.6-10.7c-0.1-3.8-1-7.3-2.8-10.6c-0.1-0.2-0.2-0.4-0.2-0.7
				c-0.2-0.8,0-1.9,0.1-2.7c0.1-3.8-1.4-7.2-2.5-10.8c-0.7-2.3-1.3-4.5-2-6.8c-0.2-0.6-0.6-1.2-1.2-2.5c1.4,0.5,2.4,0.7,3.3,1.1
				c1.2,0.6,5.4,0,6.6-1.3c1.8-1.8,3.6-3.8,2.8-6.7c-0.1-0.4-0.2-1-0.5-1.3c-1.3-1.5-1-3,0-4.7c1.6,3.4,3,6.5,4.5,9.6
				c0.2,0.5,0.5,1.1,0.5,1.6c0.1,4.7,1.9,8.9,3.8,13.2c0.7,1.6,1,3.4,1.8,5c1,2.1,2.4,4.1,3.5,6.2c0.8,1.4,1.3,3,1.9,4.5
				c0.6,1.4,1.2,2.7,1.8,4.1C210,391.6,210.3,392.5,210.6,393.3z M205,401.6c-0.1-0.2-0.2-0.5-0.4-0.8c-3.8-0.6-7.3,0.4-10.7,1.7
				c1.6,0.7,2.8,1.6,4.2,1.9c0.8,0.2,1.8-0.3,2.7-0.6c0.3-0.1,0.5-0.5,0.8-0.7C202.8,402.6,203.9,402.1,205,401.6z M195.5,372
				c-0.1-0.4-0.3-0.8-0.4-1.2c-2.1,0.5-4.2,1-6.7,1.6c0.1,0.8,0.1,1.5,0.3,2.8C191.1,374,193.3,373,195.5,372z"/>
			<path class="st1" d="M196.7,348.4c2.9,0,5.4,0,8.7,0c-2.7,1.3-4.7,2.3-6.9,3.4C198.1,351,197.5,349.8,196.7,348.4z"/>
			<path class="st0" d="M201.2,355.4c2-3.3,3.2-3.5,6.6-2.1C205.5,354,203.3,354.7,201.2,355.4z"/>
			<path d="M204.6,400.8c0.1,0.2,0.2,0.5,0.4,0.8c-1.1,0.5-2.2,1.1-3.3,1.6c-0.3,0.2-0.5,0.6-0.8,0.7c-0.9,0.3-1.9,0.8-2.7,0.6
				c-1.4-0.4-2.6-1.2-4.2-1.9C197.3,401.2,200.8,400.2,204.6,400.8z"/>
			<path d="M201.4,333.2c0.3,0.5,1,0.9,0.9,1.3c0,0.1,0,0.2,0,0.2C201.8,333.9,201.5,333.4,201.4,333.2z"/>
			<path d="M196.9,307.3c-1.8-0.3-4.5,0.7-5.3-0.2c-0.2-0.2-0.5-0.4-0.7-0.6C193.4,306.8,195.9,307.2,196.9,307.3z"/>
			<path d="M195.1,370.8c0.1,0.4,0.3,0.8,0.4,1.2c-2.2,1-4.3,2.1-6.9,3.3c-0.1-1.3-0.2-2-0.3-2.8
				C190.8,371.8,192.9,371.3,195.1,370.8z"/>
			<path d="M193.4,344.5l-1.4,2.1c-1,1.8-1.3,3.2,0,4.7c0.3,0.3,0.4,0.8,0.5,1.3c0.8,2.9-1.1,4.8-2.8,6.7c-1.2,1.2-5.3,1.9-6.6,1.3
				c-0.9-0.4-1.9-0.6-3.3-1.1c0.6,1.2,1,1.8,1.2,2.5c0.7,2.3,1.4,4.5,2,6.8c1.1,3.5,2.6,6.9,2.5,10.8c0,0.9-0.2,1.9-0.1,2.7
				l-2.1,0.3c-0.6-2.6-1.2-5.3-1.8-7.9c-0.6-2.9-1.3-5.7-2-8.6c-0.4-1.6-1-3.1-1.6-5c-1,2.7-2.7,3.9-5.3,4.7c-0.5,0.2-1,0.2-1.4,0.2
				l-0.1-2.3c0.6,0,1.5-0.4,2.1-0.7c2.9-1.8,2.4-4.7,2.3-7.7c-1.9,0-3.7-0.3-5.2,0.1l-0.5-2c1.6-0.4,3.2-0.8,4.9-1.2
				c-0.2-0.5-0.3-0.9-0.4-1.4c-0.2,0.1-0.5,0.1-0.7,0.2l-0.9-2.8c0.2-0.1,0.3-0.2,0.5-0.2c-0.6-1.4-6.3-1.8-14.8-1l-0.3-2.9
				c1.7-0.2,3.3-0.3,5-0.5c0.3-1.3,0.1-1.8-1.2-2.6c-0.8-0.5-1.5-1-2.2-1.5c-1.4-1.4-2.9-3-3.5-4.3c-0.1-0.1-0.1-0.2-0.1-0.3
				c-0.5-1.2-1.6-2-0.8-3.8c1.3,1.4,2.4,2.8,3.7,4c2.5,2.2,4.8,4.6,7.6,6.2c3.2,1.8,6.9,2.8,10.3,4c0.5,0.2,1.2,0.1,1.7-0.2
				c1.3-0.9,2.5-2,3.8-2.8c3.3-1.9,8.2-1.4,10.5,1.4C192.7,344,193,344.2,193.4,344.5z M185.7,358.2c2.1-0.3,4.7-1.9,4.1-5.6
				c0-3.4-0.8-4.4-3.6-4.4c-2.3,0-5.3,2.1-5.3,3.7C181.1,354.9,183.6,358.4,185.7,358.2z M183.1,346.7c1.2-2.2,3.5-1,5.5-1.7
				c-3.6-1.9-6.1-1.3-7.7,1.8C181.7,346.7,182.9,347,183.1,346.7z"/>
			<path class="st0" d="M189.9,352.6c0.6,3.7-2,5.3-4.1,5.6c-2.1,0.3-4.7-3.3-4.8-6.3c0-1.6,3-3.7,5.3-3.7
				C189.1,348.2,189.9,349.2,189.9,352.6z"/>
			<path class="st0" d="M188.6,344.9c-2,0.7-4.3-0.5-5.5,1.7c-0.2,0.3-1.4,0-2.2,0C182.6,343.6,185,343,188.6,344.9z"/>
			<path class="st0" d="M184,388.8c2.6,4.5,0.7,9.3,1.5,13.8c-4.1,3.4-8.8,2.2-13.1,1.9c-1.9-0.1-3.9-0.5-5.8-1.1
				c-1.8-0.5-3.6-1.1-5.4-1.6c-3.5-1-5.9-3.8-8.3-6.3c-2.6-2.6-5-5.4-7.8-7.8c-3.1-2.6-6.5-4.8-9.9-7c-1.1-0.7-1.1-1-0.1-1.6
				c2.8-1.7,5.6-2.7,8.6-0.3c0.4,0.3,1.1,0.2,1.7,0.2c2.1,0,4.2,0.1,6.2,0c1.5-0.1,2.9-0.7,4.4-0.9c2.2-0.3,4.4-0.5,6.8-0.8
				c0,2.7,0,4.7,0,6.6c-2.2,1.2-4.3,2.3-6.2,3.7c-0.6,0.4-0.7,1.7-1,2.6c0.2,0.1,0.4,0.1,0.7,0.2c1.6-1,3.2-2,5.1-3.1
				c0,3.1,0,5.8,0,8.5c0.2,0.1,0.4,0.1,0.6,0.2c0.4-0.9,0.8-1.8,1.5-3.2c0.9,0.3,2,0.7,3.5,1.2c-0.4-9.8-0.9-20-1.3-30.6
				c2,1.1,3.5,2.4,5.4,2.3c0.4,0,0.9-0.1,1.4-0.2c2.6-0.8,4.3-2,5.3-4.7c0.6,1.9,1.2,3.4,1.6,5c0.7,2.8,1.4,5.7,2,8.6
				c0.6,2.6,1.2,5.3,1.8,7.9c0.2,0.9,0.4,1.8,0.6,2.6C184,386.3,183.5,387.8,184,388.8z M182.2,399.3c-3,0-5.9,0-9.9,0
				c0.9,1.1,1.2,2.2,1.8,2.3C178.2,402.6,181,401.7,182.2,399.3z M171.6,379c5.6,0.6,7.3-0.4,6.4-3.5c-2.1,0.5-4.1,1-6.4,1.5
				C171.6,377.5,171.6,378.3,171.6,379z"/>
			<path d="M172.2,399.3c4,0,6.9,0,9.9,0c-1.1,2.4-3.9,3.3-8.1,2.3C173.5,401.4,173.1,400.4,172.2,399.3z"/>
			<path d="M178,375.5c0.9,3.1-0.8,4.1-6.4,3.5c0-0.7,0-1.5,0-2C173.9,376.5,175.9,376,178,375.5z"/>
			<path class="st0" d="M175.3,355.2c0.1,3,0.7,5.9-2.3,7.7c-0.6,0.4-1.4,0.7-2.1,0.7c-0.2,0-0.3,0-0.4-0.1
				c-0.9-0.5-1.6-1.5-2.1-2.5c-0.5-1-1.1-2.3-0.9-3.2c0.3-1,1.5-2.3,2.5-2.5C171.6,354.9,173.4,355.2,175.3,355.2z"/>
			<path class="st0" d="M174,350.7c0.1,0.5,0.3,0.9,0.4,1.4c-1.6,0.4-3.2,0.8-4.9,1.2c-0.6,0.2-1.3,0.3-2,0.5
				c-0.1-0.3-0.2-0.7-0.3-1c2-0.6,4-1.2,5.9-1.9C173.5,350.9,173.7,350.8,174,350.7z"/>
			<path d="M172.4,348.2l0.9,2.8c-2,0.6-4,1.2-5.9,1.9c0.1,0.3,0.2,0.7,0.3,1c0.6-0.2,1.3-0.3,2-0.5l0.5,2c-1,0.3-2.2,1.5-2.5,2.5
				c-0.3,0.9,0.4,2.2,0.9,3.2c0.5,1,1.2,2,2.1,2.5c0.1,0.1,0.3,0.1,0.4,0.1l0.1,2.3c-2,0-3.4-1.2-5.4-2.3l-2.8,0
				c0-2.1,0-4.1,0.2-6.1c0.2-2-1.3-2.6-2-3.6c-0.6-0.9-2.1-1.2-3.2-1.6c-1.9-0.9-4.6-1.2-5.7-2.7c-2.1-2.7-5.8,0.3-7.4-2.8l0.1-2.9
				c0.9,0,1.8,0.1,2.7,0.1c1.7,0.4,3.4,0.9,5.1,1.2c1,0.2,2.1-0.7,3.2-0.9c0,0,0.1,0,0.1,0c0.6-0.1,1.2-0.2,1.8-0.2l0.3,2.9
				c0.8,1,1.3,1.6,1.9,2.3c2.1,2.3,4.7,2.6,7.2,0.7c1.5-1.2,3-2.1,5-1.7C172.2,348.2,172.3,348.2,172.4,348.2z"/>
			<path class="st1" d="M172.9,348c-0.2,0.1-0.3,0.2-0.5,0.2c-0.1,0-0.1,0-0.2,0c-2-0.4-3.5,0.5-5,1.7c-2.6,2-5.2,1.6-7.2-0.7
				c-0.6-0.6-1.1-1.3-1.9-2.3C166.5,346.2,172.3,346.6,172.9,348z"/>
			<path d="M167.7,308.2c0.1,0.1,0.2,0.1,0.3,0.2c-1.8-0.4-4.5-0.9-7.2-1.5C163.1,307.3,165.6,306.7,167.7,308.2z"/>
			<path d="M166.6,403.4l-0.8,2.8c-0.2,0-0.4,0-0.6,0c-4.8,0.4-8.2-2.6-11.7-5c-3.2-2.2-5.9-5.3-8.7-8.1c-0.5-0.5-0.5-1.4-0.6-1.7
				c-4.5-3-8.8-5.8-13.1-8.7c-0.1-0.1-0.3-0.2-0.4-0.3c-2.3,1.2-1.9,3.5-1.9,5.8c0,2.1,0,4.2,0,6.3l-2.9,0c0-0.3,0-0.6,0-0.9
				c-0.3-3.2,0-6.5,0-9.7c0-1,0-2.1,0-2.9c-2.1-0.3-3.8-0.5-5.5-0.7c-0.6-0.1-1.4-0.1-1.8,0.2c-2.1,1.6,0.4,2.1,0.9,2.9
				c1,1.8,3,3.2,2,6.3c-0.8-0.9-1.3-1.5-1.8-2c-2.3-2.3-4.6-4.6-6.9-6.9c-1.9-1.8-3.7-3.7-5.7-5.3c-1.1-0.9-2.5-1.4-3.7-2.2
				c-2.3-1.6-4.5-3.4-6.8-5.1c-1-0.7-2-1.4-2.9-2.1l1.7-2.4c0,0,0,0,0.1,0c3-0.3,3.9,2.7,6.2,3.7c3.2,1.3,5.7,4.2,8.5,6.4
				c1,0.8,2,2.3,3.1,2.4c6.4,0.2,12.9,0.1,19.3,0.1c0.1-0.2,0.2-0.5,0.2-0.7c-2.1-1.6-4.2-3.3-6.4-4.8c-3.4-2.4-6.3-5.2-9.9-7.3
				c-2.5-1.5-4.3-4-7-5.6c-3-1.8-5.4-4.6-8-7c-3.5-3.2-8.3-2.4-12.4-3.9c-0.6-0.2-1.2-0.3-1.8-0.3l0.1-2.6c1,0.1,2,0.1,3,0.2
				c2.1,0.2,4.2,1.1,6.3,1c2.6-0.2,5.1-1.2,8.1-2c0.1,0,0.2-0.1,0.3-0.1c-0.7-2-1.2-4.3-2.3-6.2c-1.9-3.1-4.3-6-6.6-8.9
				c-1.1-1.4-2.3-2.6-3.7-3.7c-2-1.4-4.6-1.5-6.8-2.8c-2.1-1.3-5-1.4-7.6-1.7c-2.1-0.3-4.5,0.3-6.4-0.3c-1.4-0.5-2.7-0.9-4.1-1.4
				l0.8-2.4c2.9-0.6,5.5,1.4,8.2,1.4c4.6-0.1,8.8,0.9,12.8,3c2.6,1.3,5.4,2.5,7.5,4.4c2.3,1.9,3.8,4.6,5.9,6.8c2.6,2.7,3.7,6,5,9.3
				c0.5,1.2,1.7,3,2.7,3.1c5.2,0.5,10.4,0.6,15.6,0.6c2.1,0,4.2-0.5,6.4-0.6c1.6-0.1,7,0.1,12.2,0.3l-0.1,2.9c-4.2,0-8.4,0-12.7,0
				c-0.1,0.2-0.2,0.4-0.3,0.6c0.4,0.3,0.7,0.7,1.2,0.9c0.4,0.2,1.1,0.1,1.4,0.4c3.6,3.2,7,6.6,10.7,9.6c2.5,2,4.8,4.2,7.6,6.1
				c2.4,1.6,4.8,3.8,7.2,5.8c0.7,0.5,1.6,0.7,2.4,1c0.2-0.8,0.6-1.5,0.6-2.3c0-1.7,0-3.4,0-5.1l2.8,0c0.4,10.5,0.9,20.8,1.3,30.6
				c-1.5-0.5-2.6-0.9-3.5-1.2c-0.6,1.4-1,2.3-1.5,3.2c-0.2-0.1-0.4-0.1-0.6-0.2c0-2.7,0-5.4,0-8.5c-1.9,1.2-3.5,2.1-5.1,3.1
				c-0.2-0.1-0.4-0.1-0.7-0.2c0.3-0.9,0.3-2.2,1-2.6c1.9-1.4,4.1-2.5,6.2-3.7c0-1.9,0-3.9,0-6.6c-2.4,0.3-4.6,0.4-6.8,0.8
				c-1.5,0.2-2.9,0.8-4.4,0.9c-2.1,0.2-4.2,0.1-6.2,0c-0.6,0-1.3,0.1-1.7-0.2c-3-2.5-5.8-1.5-8.6,0.3c-1,0.6-1,0.9,0.1,1.6
				c3.4,2.2,6.8,4.4,9.9,7c2.8,2.3,5.2,5.2,7.8,7.8c2.5,2.5,4.8,5.2,8.3,6.3C163.1,402.3,164.8,402.9,166.6,403.4z M158.6,374.6
				c-1.2-1.5-2-2.9-3.1-3.8c-3.9-3-8-5.7-11.8-8.8c-3.4-2.8-6.7-5.9-10-8.8c-4.6-4-10-5-15.3-6.3c-4.7-1.1-9.9-0.2-14.9-0.2
				c-0.1,0.2-0.3,0.4-0.4,0.7c1.9,1.6,3.9,3.3,5.9,4.9c2.2,1.8,4.8,3.2,6.8,5.2c3.5,3.4,7.4,6.5,11.4,9.2c3.1,2.2,6,4.6,9.9,6
				c1.6,0.5,3.4,1.7,5.1,1.9c4.1,0.6,8.2,0.5,12.4,0.6C155.8,375.2,157.1,374.8,158.6,374.6z"/>
			<path class="st1" d="M161,353.9c0.8,1.1,2.2,1.7,2,3.6c-0.2,2-0.2,4.1-0.2,6.1c0,1.7,0.1,3.4,0,5.1c0,0.8-0.4,1.5-0.6,2.3
				c-0.8-0.3-1.8-0.5-2.4-1c-2.4-1.9-4.8-4.1-7.2-5.8c-2.7-1.8-5.1-4.1-7.6-6.1c-3.7-3-7.1-6.4-10.7-9.6c-0.3-0.3-0.9-0.2-1.4-0.4
				c-0.4-0.2-0.8-0.6-1.2-0.9c0.1-0.2,0.2-0.4,0.3-0.6c4.2,0,8.5,0,12.7,0c1.5,3.1,5.3,0.2,7.4,2.8c1.1,1.5,3.8,1.8,5.7,2.7
				C158.9,352.7,160.3,353,161,353.9z"/>
			<path d="M161.5,340.9c1.3,0.8,1.5,1.4,1.2,2.6c0.2-0.7-1.6-2.4-3.4-4.2C160,339.9,160.8,340.4,161.5,340.9z"/>
			<path d="M160.2,306.8c0.2,0,0.3,0.1,0.5,0.1C160.5,306.8,160.4,306.8,160.2,306.8z"/>
			<path d="M158.3,306c0.6,0.4,1.2,0.6,1.9,0.8c-4.2-0.9-8.5-1.7-10.1-2c2.1,0.3,4.4,0.1,6.4,0.5C157.2,305.4,157.8,305.6,158.3,306
				z"/>
			<path d="M156.9,302.9l-0.4,2.3c-1.9-0.4-4.3-0.2-6.4-0.5c-0.1,0-0.2,0-0.2,0c-5.3-0.9-10.6-2-15.9-3c-0.6-0.1-1.2-0.4-1.8-0.6
				c-2-0.8-3.9-1.7-6-2.3c-2.5-0.7-5.5-0.5-7.6-1.7c-2.5-1.5-5.2-1.4-7.7-2.6c-0.8-0.4-1.9-0.3-2.9-0.5c-0.1,0-0.2,0-0.2-0.1
				c-2.4-0.7-4.7-1.6-7.1-2.1c-2.9-0.6-5.8-1-8.8-1.5c-0.1,0-0.2,0-0.4-0.1c0,0,0,0,0,0c-0.1,0-0.2-0.1-0.3-0.1c0,0-0.1,0-0.1-0.1
				c-0.4-2-2-1.1-3.2-1.3c-0.5-0.1-1-0.1-1.4-0.2c-1.8-0.7-3.6-1.6-5.5-2.2c-2.2-0.8-4.5-1.4-6.8-2.1c-2.1-0.7-4.1-1.6-6.2-2.4
				c-1.8-0.7-3.7-1.2-5.5-1.9c-2.1-0.8-4.1-1.7-6.2-2.5l1.1-2.7c0.2,0.1,0.4,0.1,0.6,0c0.1,0,0.2,0,0.3,0c2.6,1,4.7,1.8,5.6,2.2
				c0.1,0,0.1,0,0.2,0.1c0.1,0.1,0.3,0.1,0.4,0.2c0.1,0,0.2,0.1,0.3,0.1c2.7,1.1,9.3,3.2,11.4,4c0.1,0,0.2,0,0.2,0.1
				c1.7,0.7,3.5,1.3,5.3,1.9c2.9,0.9,5.8,1.8,8.7,2.6c2.2,0.6,4.4,0.9,6.5,1.5c1.6,0.4,3.2,1,4.9,1.5c1.6,0.5,3.2,0.9,4.7,1.4
				c1.8,0.5,3.5,1,5.3,1.4c2.4,0.6,4.8,1.1,7.1,1.8c2,0.6,3.9,1.4,5.9,2.1c0.1,0,0.1,0.2,0.1,0.2c0.1,0,0.3,0.1,0.5,0.1
				c1.5,0.4,4.5,1.2,7.6,2c0.4,0.2,0.8,0.5,1.3,0.7c0.2,0.1,0.4,0.3,0.6,0.3c1.9,0.1,3.7,0.5,5.5,1c0.3,0.1,0.6,0.2,0.9,0.2
				c0.1,0,0.3,0.1,0.4,0.1c0.2,0,0.3,0.1,0.5,0.1c0.2,0.1,0.5,0.1,0.7,0.2C146.6,301.2,152.4,302.1,156.9,302.9z"/>
			<path class="st1" d="M155.5,370.8c1.1,0.9,1.9,2.2,3.1,3.8c-1.5,0.2-2.8,0.6-4.1,0.6c-4.1-0.1-8.3,0-12.4-0.6
				c-1.6-0.2-3.5-1.4-5.1-1.9c-3.8-1.3-6.7-3.8-9.9-6c-4-2.8-7.9-5.8-11.4-9.2c-2-2-4.6-3.4-6.8-5.2c-2-1.6-3.9-3.2-5.9-4.9
				c0.1-0.2,0.3-0.4,0.4-0.7c5,0,10.2-0.9,14.9,0.2c5.2,1.2,10.7,2.3,15.3,6.3c3.3,2.9,6.5,6,10,8.8
				C147.5,365.1,151.6,367.8,155.5,370.8z"/>
			<path d="M147.5,344c4.1,0.2,7.6,0.3,8.3,0.3c-1.1,0.2-2.2,1.1-3.2,0.9C150.9,344.9,149.2,344.4,147.5,344z"/>
			<path d="M152,314.1c0.3,0.1,0.6,0.2,0.9,0.3c-0.7,2.6-1.3,5.3-2,8c-5.2,0.7-8.8,4.1-12.1,8.1c-1.6,1.9-3.1,4-4.7,5.9
				c-0.1,0.2-0.8,0.3-0.9,0.2c-0.2-0.2-0.5-0.8-0.4-1c0.7-1.8,1.3-3.8,2.4-5.3c2-2.6,4.2-5.2,6.7-7.2c2.1-1.7,4.9-2.6,7.2-3.8
				C150.3,317.5,151.2,315.8,152,314.1z"/>
			<path d="M144.3,391.4c0.1,0.2,0.1,1.2,0.6,1.7c-0.5-0.5-9.1-7.2-13.7-10.4C135.6,385.6,139.8,388.3,144.3,391.4z"/>
			<path d="M142,300.1c0.1,0,0.3,0.1,0.5,0.1C142.3,300.2,142.1,300.2,142,300.1z"/>
			<path d="M133.2,297.7c2.9,0.8,5.8,1.6,7.4,2c-1.8-0.5-3.6-0.9-5.5-1c-0.2,0-0.4-0.2-0.6-0.3C134.1,298.2,133.7,298,133.2,297.7z"
				/>
			<path class="st1" d="M133,375.5c-0.1,0.2-0.2,0.5-0.2,0.7c-6.4,0-12.9,0.1-19.3-0.1c-1,0-2-1.5-3.1-2.4c-2.8-2.2-5.4-5.1-8.5-6.4
				c-2.3-1-3.2-4-6.2-3.7c0,0,0,0-0.1,0c-0.2-0.1-0.5-0.9-0.8-1.2c-2.8-2.9-5.8-5.6-8.4-8.7c-1.7-1.9-3.6-3.9-4-7
				c1.8,0,3.6-0.3,5.2-0.2c0.6,0,1.2,0.1,1.8,0.3c4.1,1.5,8.8,0.8,12.4,3.9c2.7,2.4,5,5.2,8,7c2.7,1.6,4.5,4.1,7,5.6
				c3.6,2.1,6.5,5,9.9,7.3C128.8,372.2,130.9,373.9,133,375.5z"/>
			<path d="M126,394.5l2.9,0c0,1.4,0,2.8-0.1,4.2c0,0.8-0.4,1.8-1,2.5c-2,2.5-4,4.9-6.1,7.2c-0.7,0.8-1.8,1.4-2.8,1.7
				c-2.9,0.7-5.9,1.9-8.7,1.5c-4-0.7-8.3-1.6-11.4-4.9c-0.8-0.9-2-1.6-3.1-1.8c-1.2-0.2-2.5-0.6-3.8,0.9c-1.9,2.2-4.7,3.3-7.8,3.5
				c-3.7,0.3-7.4,0.7-11.1,0.9c-0.7,0-1.5-0.3-2.2-0.7c-2.2-1.2-3.6,0.6-5.2,1.4c-1.9,1-4.1,1.5-5.9,2.5c-4.7,2.5-9.9-0.1-14.2,1.6
				c-1.2,0.5-3.2,0.6-5.3,0.5l0-2.3c0.2,0,0.4,0,0.4-0.1c0.2-0.3,0.4-0.6,0.6-0.8c1.6-0.2,3.3-0.5,4.3-0.9c0.1,0,0.2-0.1,0.3-0.1
				c-2.8-1.7-5.1-3.2-8.1-5c0.1,0,0.2,0,0.2,0c2.6,0.5,9.2,3.1,12.6,4c0.3,0.1,0.6,0.1,0.8,0.2c0.1,0,0.2,0,0.3,0.1
				c0.1,0,0.2,0,0.3,0.1c4.8,0.6,9.4-0.4,12.7-3.3c-0.5-1.5-0.8-2.6-1.3-4c1.1,0,2-0.2,2.2,0c0.1,0.1,0.1,0.1,0.2,0.2
				c0.8,0.8,1.6,1.1,2.6,1.2c0.7,0.2,1.5,0.5,2.2,0.7c0.8,1.4,2.3,0.6,3.5,0.8c4.4,0.5,8.7-0.2,12.8-1.6c1-0.4,2-1.9,2.2-3
				c0-0.1,0-0.1,0-0.2c0-1.6-0.9-9.2-0.7-9.3c0.3,0.4,1.2,2.5,1.5,3.2c1.2,2.9,3.3,4.8,6.3,6c3.3,1.4,6.4,3.2,9.5,5
				c3.7,2.1,7.1,1.8,10.9,0.2c1.9-0.8,2.9-2.2,4.3-3.3C123.8,400.8,126,398.3,126,394.5z"/>
			<path class="st0" d="M126,393.6c0,0.3,0,0.6,0,0.9c0,3.8-2.2,6.4-4.9,8.6c-1.3,1.1-2.3,2.5-4.3,3.3c-3.9,1.6-7.3,2-10.9-0.2
				c-3.1-1.8-6.2-3.7-9.5-5c-3-1.2-5.1-3.1-6.3-6c-0.3-0.6-0.4-1.3-0.6-1.9c-0.2-0.5-0.6-0.8-0.8-1.2c-0.2,0.1-0.4,0.2-0.6,0.2
				c0,2-0.2,4,0.1,5.9c0.1,1.1,1.3,2.2,1.3,3.1c0,0.1,0,0.2,0,0.2c-0.2,1.1-1.2,2.7-2.2,3c-4.1,1.5-8.4,2.1-12.8,1.6
				c-0.6-0.1-2-0.4-3.5-0.8c-0.1-0.1-0.2-0.3-0.2-0.5c0-0.1-0.3-0.2-0.4-0.1c-0.5,0-1.1,0-1.6,0c-1.1-0.4-2.1-0.8-2.6-1.2
				c-0.1-0.1-0.1-0.1-0.2-0.2c-0.2-0.3-1.1,0-2.2,0c0.5,1.4,0.8,2.5,1.3,4c-3.3,2.9-7.9,3.9-12.7,3.3c-0.1,0-0.2,0-0.3-0.1
				c-0.1,0-0.2,0-0.3-0.1c-0.2-0.1-0.5-0.1-0.8-0.2c-2.1-0.6-4.1-1.9-5.9-3.2c-2.2-1.6-4.1-0.5-6.7-0.9c-0.1,0-0.2,0-0.2,0
				c3,1.9,5.3,3.3,8.1,5c-0.1,0-0.2,0.1-0.3,0.1c-1.6,0.6-3.2,0-4.3,0.9c-2,0.3-3.9,0.4-4.6,0.2c-0.6-0.1-1.2-0.7-1.8-0.7
				c-5-0.1-8.9-3.2-13.4-4.8c-2-0.7-3.6-2.2-6-2.4c-1.8-0.1-3.4-1.3-5.2-2c-2.8-1.1-5.6-2.3-8.5-3.4c-0.3-0.1-1.2-0.5-2-0.8
				c0-27.2,0-54.5,0-81.7c0.5-0.2,0.9-0.4,1.4-0.5c2.7-0.1,5.7,0,7.9-0.3c0.1,0,0.3,0,0.4-0.1c0.2,0,0.4-0.1,0.5-0.1
				c0.2,0,0.3-0.1,0.5-0.1c9.3-2.9,18.7-0.6,27.9-1.3c1.3-0.1,2.6,0.8,4,1.1c0.6,0.2,1.3,0.3,1.9,0.3c3.2,0,6.3,0.1,9.5,0
				c4.8-0.1,9.3,1,13.7,2.4c1.4,0.4,2.7,0.9,4.1,1.4c1.9,0.7,4.3,0,6.4,0.3c2.6,0.3,5.5,0.4,7.6,1.7c2.2,1.3,4.8,1.4,6.8,2.8
				c1.4,1,2.6,2.3,3.7,3.7c2.3,2.9,4.6,5.7,6.6,8.9c1.2,1.9,1.6,4.2,2.3,6.2c-0.1,0-0.2,0-0.3,0.1c-3.4,0.8-12.3,1.2-14.4,1
				c-1-0.1-2-0.1-3-0.2c-2.5-0.1-5-0.2-7.4-0.1c-3,0-5.9,0.4-9.4,0.7c0.8-2.8,1.4-5,2-7.4c-0.2-0.1-0.5-0.2-0.7-0.3
				c-1.9,1.5-4.1,2.7-3.6,5.7c0.3,2,0.1,4.4,1,6.1c0,0.1,0,0.1,0.1,0.1c1.3,2.3,3.6,3.9,6.1,5.1c1.9,0.9,3.5,2.6,5.3,3.9
				c1.5,1,3,2,4.5,3c1.6,1,3.3,2,4.9,3.1c1.1,0.8,2.2,1.5,3.3,2.3c1,0.7,2,1.4,2.9,2.1c2.3,1.7,4.5,3.4,6.8,5.1
				c1.2,0.8,2.6,1.3,3.7,2.2c2,1.7,3.8,3.5,5.7,5.3c2.3,2.3,4.6,4.6,6.9,6.9c0.5,0.5,1,1.1,1.8,2c0.9-3-1-4.4-2-6.3
				c-0.4-0.8-2.9-1.3-0.9-2.9c0.4-0.3,1.2-0.3,1.8-0.2c1.7,0.2,3.4,0.4,5.5,0.7c0,0.8,0,1.9,0,2.9
				C125.9,387.1,125.7,390.4,126,393.6z"/>
			<path d="M100.7,291.8c2.4,0.5,4.7,1.4,7.1,2.1c-2.8-0.8-12.5-3-15.8-3.6C94.9,290.8,97.9,291.2,100.7,291.8z"/>
			<path d="M105,343.1c-3,0.8-5.5,1.8-8.1,2c-2.1,0.2-4.2-0.8-6.3-1C92.7,344.3,101.6,343.9,105,343.1z"/>
			<path d="M95.5,363.6l-1.7,2.4c-1.1-0.8-2.2-1.5-3.3-2.3c-1.6-1.1-3.3-2-4.9-3.1c-1.5-1-3.1-1.9-4.5-3c-1.8-1.3-3.4-3-5.3-3.9
				c-2.6-1.2-4.8-2.8-6.1-5.1c0,0-0.1-0.1-0.1-0.1c-0.8-2,0.8-10.4,2.6-11.8c0.2,0.1-0.5,5-1.3,7.7c3.5-0.3,6.4-0.6,9.4-0.7
				c2.5,0,5,0,7.4,0.1l-0.1,2.6c-1.6-0.1-3.4,0.2-5.2,0.2c0.4,3.1,2.4,5,4,7c2.6,3.1,5.6,5.8,8.4,8.7
				C95.1,362.7,95.3,363.5,95.5,363.6z M79,352.3c0.2-0.1,0.4-0.2,0.6-0.3c-0.7-1.6-1.3-3.2-2.1-5c-1.1,0-2.3,0-3.8,0
				C74.2,350.3,77.5,350.3,79,352.3z"/>
			<path d="M91.2,290.1C91.2,290.1,91.2,290.1,91.2,290.1c-1.1-0.3-4.2-1.4-4.6-1.5c0.4,0.2,1,0.1,1.4,0.2
				C89.2,289,90.8,288.1,91.2,290.1z"/>
			<path class="st1" d="M79.6,351.9c-0.2,0.1-0.4,0.2-0.6,0.3c-1.5-1.9-4.8-2-5.3-5.4c1.5,0,2.7,0,3.8,0
				C78.3,348.7,78.9,350.3,79.6,351.9z"/>
			<path d="M74.3,406.2c-1.2-0.2-2.7,0.6-3.5-0.8C72.4,405.8,73.8,406.1,74.3,406.2z"/>
			<path d="M68.6,315.7l-0.8,2.4c-4.5-1.4-8.9-2.5-13.7-2.4c-3.2,0.1-6.3,0-9.5,0c-0.7,0-1.3-0.1-1.9-0.3c-1.3-0.4-2.7-1.2-4-1.1
				c-9.3,0.7-18.7-1.6-27.9,1.3c-0.2,0.1-0.3,0.1-0.5,0.1c-0.2,0-0.4,0.1-0.5,0.1c-0.1,0-0.3,0-0.4,0.1c-2.5,0.3-5.3-0.3-7.9,0.3
				c-2.1,0.1-4,0.3-5.3,1c0-1.2-1-2.6-1-3.8c1.2-0.2,3-0.4,5-0.6c0,0.1,0,0.3,0,0.4c3.3-0.5,6.5-1,9.8-1.4c0.1,0,0.3,0,0.4,0
				c5.3-0.6,10.6-1.2,16-1.5c2.4-0.1,4.7,0.7,7.1,0.9c5.6,0.5,11.3,1.1,17,1.5c3.2,0.2,6.9-0.9,9.6,0.3
				C62.8,314.3,66.4,312.9,68.6,315.7z"/>
			<path d="M68.7,404.7c-1-0.1-1.8-0.5-2.6-1.2C66.6,403.9,67.6,404.3,68.7,404.7z"/>
			<path d="M58.4,274.7c-0.1,0-0.2,0-0.3,0c-0.2,0-0.4,0-0.6,0c-0.1,0-0.2-0.1-0.3-0.2c-0.1-0.1-0.2-0.3-0.4-0.4
				C57.4,274.3,57.9,274.5,58.4,274.7z"/>
			<path d="M57.5,274.7l-1.1,2.7c-0.1,0-0.2-0.1-0.3-0.1c-1.7-0.7-3.4-1.2-5-1.9c-1.9-0.7-3.7-1.4-5.5-2.1c-1-0.4-2.1-0.6-3-1
				c-1.5-0.6-2.9-1.3-4.3-1.9c-3.2-1.5-6.5-2.8-9.6-4.5c-4.4-2.5-8.6-5.4-13-8c-2.2-1.3-4.7-1.9-6.9-3.1c-0.1-0.1-0.3-0.2-0.4-0.2
				c-0.1-0.1-0.2-0.1-0.4-0.2c-0.1-0.1-0.2-0.1-0.4-0.2c-0.1-0.1-0.3-0.2-0.4-0.2c-0.2-0.1-0.5-0.3-0.8-0.4
				c-0.3-0.2-0.6-0.3-0.9-0.5c-0.2-0.1-0.4-0.2-0.5-0.3c-0.4-0.2-0.7-0.4-1.1-0.6c-0.3-0.2-0.6-0.4-0.9-0.6
				c-0.5-0.3-1.1-0.6-1.6-0.9c-1.6-1-3-1.8-4.1-2.5c0-1.5,1.8-1.6,1.8-3.1c2.2,0.9,8.9,5.3,11.1,6.7c0.2,0.1,0.4,0.2,0.5,0.3
				c0.1,0.1,0.2,0.1,0.4,0.2s0.3,0.1,0.4,0.2c0.2,0.1,0.3,0.2,0.5,0.2c0.2,0.1,0.4,0.2,0.6,0.3c0.2,0.1,0.3,0.1,0.4,0.2
				c1.3,0.6,2.6,1.2,3.9,1.8c0.4,0.2,0.7,0.3,1.1,0.4c0.2,0.1,0.3,0.1,0.5,0.2c0.1,0.1,0.2,0.1,0.4,0.2c4,2.3,13.3,8,14.4,8.7
				c1.2,0.7,2.5,1.3,3.8,1.9c2.9,1.3,5.8,2.6,8.8,3.8c0.1,0.1,0.4,0.1,0.7,0.2c1.9,0.7,6.4,2.3,10.5,3.8c0.1,0.1,0.2,0.2,0.4,0.4
				C57.2,274.6,57.3,274.7,57.5,274.7z"/>
			<path d="M41.4,412.2c-0.2,0.2-0.4,0.5-0.6,0.8c0,0.1-0.2,0.1-0.4,0.1c-0.8,0-2.5-0.5-3.6-0.7C37.5,412.6,39.4,412.5,41.4,412.2z"
				/>
			<path d="M40.4,413.2l0,2.3c-3.3-0.1-6.8-0.5-8-0.7c0,0-0.1,0-0.1,0c-0.1,0-0.1,0-0.2,0c0,0-0.1,0-0.1,0c0,0,0,0,0,0
				c-3.9-0.2-7-2.4-10.3-3.9c-0.1-0.1-0.3-0.1-0.5-0.2c-2.2-1-8.3-3.4-13.7-5.5c0,0-0.1-0.1-0.1-0.1c-0.1-0.1-0.4-0.2-0.7-0.2
				c-2.6-1-5-2-6.5-2.6h0c-0.8-0.3-1.4-0.6-1.7-0.7c0-1,0.3-2.4,0.3-3.4c0.3,0,0.8,0.2,1.4,0.4c0,0.2,0,0.5,0,0.7c0.7,0,1.4-0.2,2,0
				c2.8,1.1,5.7,2.2,8.5,3.4c1.7,0.7,3.4,1.9,5.2,2c2.3,0.2,4,1.6,6,2.4c4.5,1.6,8.4,4.7,13.4,4.8c0.6,0,1.1,0.6,1.8,0.7
				C37.8,412.7,39.6,413.2,40.4,413.2z"/>
			<path d="M31.9,414.7c0,0,0.1,0,0.1,0C32,414.7,32,414.7,31.9,414.7z"/>
			<path d="M10.2,315.7c0.2,0,0.3-0.1,0.5-0.1C10.6,315.7,10.4,315.7,10.2,315.7z"/>
			<path d="M1.4,316.2c2.6-0.6,5.4,0,7.9-0.3C7.2,316.2,4.2,316.1,1.4,316.2z"/>
			<path d="M7.3,404.9c0,0,0,0.1,0.1,0.1c-0.3-0.1-0.5-0.2-0.8-0.3C6.9,404.8,7.2,404.8,7.3,404.9z"/>
			<path d="M0,312.8c3.5-0.4,7.5-0.7,9.8-1c-3.3,0.4-6.5,0.9-9.8,1.4C0,313.1,0,313,0,312.8z"/>
			<path d="M2,399.2c-0.6-0.2-1.3,0-2,0c0-0.2,0-0.5,0-0.7C0.8,398.7,1.7,399.1,2,399.2z"/>
		</g>
		<g>
		</g>
	</g>
</g>
</svg>
